<svg id="svg" xmlns="http://www.w3.org/2000/svg" xmlns:xlink="http://www.w3.org/1999/xlink" viewBox="0, 0, 400,400"><g id="svgg"><path id="path0" d="M185.000 32.308 C 144.189 38.484,120.729 48.166,94.143 69.802 C 80.911 80.571,60.505 103.713,56.249 112.776 C 54.937 115.571,53.421 118.179,52.881 118.571 C 49.083 121.334,38.472 151.146,34.831 169.286 C 28.598 200.339,35.228 250.974,47.895 269.059 C 50.823 273.239,50.537 278.061,46.597 290.983 C 44.725 297.121,41.770 307.286,40.029 313.571 C 38.289 319.857,35.593 329.351,34.039 334.668 C 27.232 357.954,41.883 372.740,64.980 365.892 C 119.680 349.673,124.994 348.535,130.201 351.922 C 163.610 373.655,233.369 372.260,277.038 348.986 C 400.285 283.298,397.022 108.109,271.429 47.864 C 248.228 36.735,205.984 29.132,185.000 32.308 M224.286 62.093 C 257.031 67.604,283.699 83.134,308.571 111.177 C 348.768 156.499,350.278 229.493,312.143 283.894 C 309.224 288.058,300.580 297.659,296.498 301.270 C 294.179 303.321,290.890 306.286,289.188 307.857 C 287.487 309.429,285.141 311.357,283.976 312.143 C 272.255 320.043,268.300 322.466,262.143 325.522 C 222.874 345.012,177.995 344.840,136.959 325.044 C 132.838 323.055,127.738 321.429,125.628 321.429 C 120.888 321.429,104.206 325.675,76.776 333.864 C 61.659 338.377,61.578 338.317,65.446 325.347 C 79.935 276.765,80.307 274.090,74.302 261.693 C 24.227 158.319,110.874 43.008,224.286 62.093 M190.907 110.104 L 187.143 113.065 187.143 170.721 L 187.143 228.377 191.292 231.331 C 193.574 232.956,197.493 234.286,200.000 234.286 C 202.507 234.286,206.426 232.956,208.708 231.331 L 212.857 228.377 212.857 170.721 L 212.857 113.065 209.093 110.104 C 206.813 108.310,203.228 107.143,200.000 107.143 C 196.772 107.143,193.187 108.310,190.907 110.104 M190.426 259.942 C 178.969 266.928,178.886 283.022,190.271 289.963 C 200.379 296.126,213.168 291.593,217.042 280.475 C 222.466 264.909,204.726 251.223,190.426 259.942 " stroke="none" fill-rule="evenodd"></path></g></svg>