<svg id="svg" xmlns="http://www.w3.org/2000/svg" xmlns:xlink="http://www.w3.org/1999/xlink" viewBox="0, 0, 400,400"><g id="svgg"><path id="path0" d="M188.571 32.319 C 174.434 35.017,157.416 41.871,151.748 47.152 C 150.067 48.718,148.182 50.010,147.560 50.022 C 145.745 50.058,133.783 62.993,129.085 70.000 C 111.636 96.026,111.361 133.619,128.411 162.149 C 131.963 168.093,150.822 187.143,153.154 187.143 C 153.889 187.143,155.407 188.060,156.528 189.181 C 170.717 203.370,231.138 203.406,242.902 189.232 C 243.855 188.083,245.271 187.143,246.048 187.143 C 251.406 187.143,269.179 167.164,276.270 153.170 C 288.983 128.081,285.755 89.938,269.020 67.521 C 263.630 60.301,253.424 50.000,251.660 50.000 C 250.878 50.000,250.024 49.426,249.762 48.724 C 246.632 40.339,205.015 29.182,188.571 32.319 M215.130 61.971 C 252.421 71.901,269.808 122.534,245.551 150.564 C 240.190 156.760,235.609 161.429,234.892 161.429 C 234.454 161.429,232.049 162.932,229.548 164.770 C 209.231 179.701,177.572 175.386,158.314 155.061 C 119.591 114.193,160.364 47.387,215.130 61.971 M96.429 232.442 C 59.062 241.844,53.744 295.587,86.929 328.450 C 153.761 394.634,312.050 373.802,332.272 296.162 C 339.377 268.887,331.100 244.676,311.445 235.237 C 305.251 232.264,107.364 229.691,96.429 232.442 M303.056 262.740 C 308.250 266.960,307.880 287.948,302.450 297.180 C 263.056 364.159,93.757 348.699,93.600 278.108 C 93.555 258.083,82.290 260.000,200.000 260.000 C 296.141 260.000,299.803 260.097,303.056 262.740 " stroke="none" fill-rule="evenodd"></path></g></svg>