<svg id="svg" xmlns="http://www.w3.org/2000/svg" xmlns:xlink="http://www.w3.org/1999/xlink" viewBox="0, 0, 400,400"><g id="svgg"><path id="path0" d="M185.000 32.308 C 144.189 38.484,120.729 48.166,94.143 69.802 C 80.911 80.571,60.505 103.713,56.249 112.776 C 54.937 115.571,53.421 118.179,52.881 118.571 C 49.083 121.334,38.472 151.146,34.831 169.286 C 29.934 193.681,32.795 235.326,40.588 253.084 C 41.740 255.709,43.024 259.464,43.442 261.429 C 48.670 286.032,88.041 330.325,120.000 347.559 C 255.238 420.486,409.857 287.068,357.789 142.375 C 332.895 73.196,252.636 22.071,185.000 32.308 M224.286 62.093 C 257.031 67.604,283.699 83.134,308.571 111.177 C 342.171 149.060,349.454 213.924,325.522 262.143 C 322.479 268.275,319.589 272.987,312.143 283.961 C 309.452 287.928,300.715 297.585,295.817 302.007 C 293.124 304.439,289.853 307.393,288.549 308.571 C 287.245 309.750,285.205 311.357,284.017 312.143 C 282.828 312.929,279.028 315.463,275.571 317.774 C 220.993 354.269,141.945 344.495,97.993 295.817 C 95.561 293.124,92.594 289.896,91.399 288.645 C 78.934 275.588,65.915 246.998,62.093 224.286 C 45.823 127.603,127.603 45.823,224.286 62.093 M191.071 118.736 L 187.143 121.667 187.143 154.405 L 187.143 187.143 154.383 187.143 L 121.623 187.143 118.669 191.292 C 114.900 196.584,114.900 203.416,118.669 208.708 L 121.623 212.857 154.383 212.857 L 187.143 212.857 187.143 245.617 L 187.143 278.377 191.292 281.331 C 196.584 285.100,203.416 285.100,208.708 281.331 L 212.857 278.377 212.857 245.617 L 212.857 212.857 245.617 212.857 L 278.377 212.857 281.331 208.708 C 282.956 206.426,284.286 202.507,284.286 200.000 C 284.286 197.493,282.956 193.574,281.331 191.292 L 278.377 187.143 245.617 187.143 L 212.857 187.143 212.857 154.383 L 212.857 121.623 208.708 118.669 C 203.457 114.930,196.136 114.957,191.071 118.736 " stroke="none" fill-rule="evenodd"></path></g></svg>