<svg id="svg" xmlns="http://www.w3.org/2000/svg" xmlns:xlink="http://www.w3.org/1999/xlink" viewBox="0, 0, 400,400"><g id="svgg"><path id="path0" d="M178.571 32.716 C 168.758 34.952,156.371 39.013,152.857 41.146 C 139.744 49.108,124.286 62.235,124.286 65.410 C 124.286 66.171,123.368 67.555,122.246 68.486 C 115.109 74.409,107.131 99.822,107.167 116.520 C 107.375 212.670,241.566 232.898,272.417 141.429 C 291.596 84.562,235.618 19.715,178.571 32.716 M206.429 61.964 C 249.364 73.565,262.606 127.675,230.026 158.392 C 197.265 189.280,143.143 170.314,135.578 125.295 C 128.832 85.145,166.757 51.245,206.429 61.964 M283.753 202.500 C 283.354 203.875,282.297 207.893,281.404 211.429 C 276.377 231.329,256.575 241.856,237.096 234.983 C 229.294 232.231,227.355 233.766,220.564 248.077 C 214.481 260.897,214.416 260.192,222.433 268.583 C 236.219 283.013,236.005 299.995,221.839 315.750 L 215.370 322.945 218.202 329.760 C 225.733 347.883,229.756 351.325,239.515 348.000 C 251.815 343.809,262.854 346.544,272.869 356.264 C 278.275 361.511,279.600 364.236,282.816 376.728 C 284.650 383.851,287.942 384.967,304.379 384.038 C 315.530 383.408,316.466 382.686,317.924 373.601 C 321.164 353.414,341.129 341.405,360.485 348.000 C 370.260 351.331,374.263 347.890,381.846 329.645 L 384.726 322.714 379.730 317.429 C 363.077 299.810,362.714 282.698,378.665 267.218 C 385.513 260.572,385.513 260.555,379.176 247.728 C 372.027 233.261,370.268 231.868,362.879 234.825 C 345.980 241.586,318.618 228.562,318.579 213.737 C 318.575 212.257,317.827 208.560,316.917 205.523 L 315.262 200.000 299.870 200.000 C 286.440 200.000,284.386 200.319,283.753 202.500 M96.429 232.461 C 51.164 243.560,55.524 311.162,103.504 342.182 C 130.937 359.918,176.264 370.843,210.020 367.855 C 223.345 366.676,223.376 366.600,215.046 355.774 C 211.536 351.212,207.897 345.797,206.960 343.740 C 205.352 340.211,204.676 340.000,195.003 340.000 C 138.733 340.000,94.115 312.731,93.717 278.097 C 93.494 258.789,89.766 260.000,149.444 260.000 C 190.334 260.000,198.571 259.668,198.571 258.023 C 198.571 256.935,201.143 250.908,204.286 244.628 C 207.429 238.349,210.000 232.810,210.000 232.320 C 210.000 231.282,100.682 231.418,96.429 232.461 M312.899 272.172 C 324.434 280.166,326.898 293.592,318.915 304.951 C 302.822 327.848,266.435 307.214,278.597 282.089 C 284.950 268.966,301.407 264.208,312.899 272.172 " stroke="none" fill-rule="evenodd"></path></g></svg>