<svg id="svg" xmlns="http://www.w3.org/2000/svg" xmlns:xlink="http://www.w3.org/1999/xlink" width="400" height="400" viewBox="0, 0, 400,400"><g id="svgg"><path id="path0" d="M80.383 61.775 C 52.103 76.105,49.917 117.145,76.440 135.787 C 87.285 143.409,112.715 143.409,123.560 135.787 C 148.230 118.448,148.232 81.559,123.563 64.213 C 113.739 57.305,91.665 56.059,80.383 61.775 M180.765 62.278 C 149.327 76.918,150.428 125.800,182.500 139.305 C 217.456 154.024,250.945 122.190,239.764 84.870 C 233.154 62.808,203.782 51.560,180.765 62.278 M280.383 61.775 C 252.103 76.105,249.917 117.145,276.440 135.787 C 287.285 143.409,312.715 143.409,323.560 135.787 C 348.230 118.448,348.232 81.559,323.563 64.213 C 313.739 57.305,291.665 56.059,280.383 61.775 M111.546 89.391 C 120.186 100.376,113.593 115.000,100.000 115.000 C 90.105 115.000,85.000 109.895,85.000 100.000 C 85.000 90.105,90.105 85.000,100.000 85.000 C 106.756 85.000,108.661 85.725,111.546 89.391 M210.909 89.091 C 216.483 94.665,216.529 104.703,211.010 111.119 C 201.785 121.844,185.000 114.560,185.000 99.831 C 185.000 90.628,190.692 85.000,200.000 85.000 C 205.017 85.000,207.899 86.081,210.909 89.091 M311.546 89.391 C 320.186 100.376,313.593 115.000,300.000 115.000 C 290.105 115.000,285.000 109.895,285.000 100.000 C 285.000 90.105,290.105 85.000,300.000 85.000 C 306.756 85.000,308.661 85.725,311.546 89.391 M80.452 161.742 C 48.511 177.929,51.612 230.194,85.108 240.229 C 133.111 254.611,164.338 192.884,123.563 164.213 C 113.770 157.327,91.663 156.060,80.452 161.742 M180.452 161.742 C 148.511 177.929,151.612 230.194,185.108 240.229 C 233.111 254.611,264.338 192.884,223.563 164.213 C 213.770 157.327,191.663 156.060,180.452 161.742 M280.452 161.742 C 248.511 177.929,251.612 230.194,285.108 240.229 C 333.111 254.611,364.338 192.884,323.563 164.213 C 313.770 157.327,291.663 156.060,280.452 161.742 M111.546 189.391 C 120.186 200.376,113.593 215.000,100.000 215.000 C 90.105 215.000,85.000 209.895,85.000 200.000 C 85.000 190.105,90.105 185.000,100.000 185.000 C 106.756 185.000,108.661 185.725,111.546 189.391 M211.546 189.391 C 220.186 200.376,213.593 215.000,200.000 215.000 C 190.105 215.000,185.000 209.895,185.000 200.000 C 185.000 190.105,190.105 185.000,200.000 185.000 C 206.756 185.000,208.661 185.725,211.546 189.391 M311.546 189.391 C 320.186 200.376,313.593 215.000,300.000 215.000 C 290.105 215.000,285.000 209.895,285.000 200.000 C 285.000 190.105,290.105 185.000,300.000 185.000 C 306.756 185.000,308.661 185.725,311.546 189.391 M80.383 261.775 C 52.103 276.105,49.917 317.145,76.440 335.787 C 87.285 343.409,112.715 343.409,123.560 335.787 C 148.230 318.448,148.232 281.559,123.563 264.213 C 113.739 257.305,91.665 256.059,80.383 261.775 M180.765 262.278 C 149.327 276.918,150.428 325.800,182.500 339.305 C 217.456 354.024,250.945 322.190,239.764 284.870 C 233.154 262.808,203.782 251.560,180.765 262.278 M280.383 261.775 C 252.103 276.105,249.917 317.145,276.440 335.787 C 287.285 343.409,312.715 343.409,323.560 335.787 C 348.230 318.448,348.232 281.559,323.563 264.213 C 313.739 257.305,291.665 256.059,280.383 261.775 M111.546 289.391 C 120.186 300.376,113.593 315.000,100.000 315.000 C 90.105 315.000,85.000 309.895,85.000 300.000 C 85.000 290.105,90.105 285.000,100.000 285.000 C 106.756 285.000,108.661 285.725,111.546 289.391 M210.909 289.091 C 216.483 294.665,216.529 304.703,211.010 311.119 C 201.785 321.844,185.000 314.560,185.000 299.831 C 185.000 290.628,190.692 285.000,200.000 285.000 C 205.017 285.000,207.899 286.081,210.909 289.091 M311.546 289.391 C 320.186 300.376,313.593 315.000,300.000 315.000 C 290.105 315.000,285.000 309.895,285.000 300.000 C 285.000 290.105,290.105 285.000,300.000 285.000 C 306.756 285.000,308.661 285.725,311.546 289.391 " stroke="none" fill="#000000" fill-rule="evenodd"></path></g></svg>