<svg id="svg" xmlns="http://www.w3.org/2000/svg" xmlns:xlink="http://www.w3.org/1999/xlink" viewBox="0, 0, 400,400" version="1.1"><g id="svgg"><path id="path0" d="M101.639 42.236 C 94.318 44.536,89.505 48.982,84.828 57.769 L 81.429 64.155 81.442 199.577 L 81.455 335.000 84.805 341.919 C 89.104 350.796,94.365 355.242,103.820 357.991 C 115.146 361.284,247.827 360.197,260.995 356.703 C 338.834 336.051,360.141 237.585,297.396 188.480 L 292.757 184.849 299.340 171.778 C 326.830 117.190,292.774 51.439,232.143 42.044 C 214.064 39.242,110.684 39.394,101.639 42.236 M228.668 103.733 C 246.336 111.906,253.405 130.556,245.070 147.004 C 236.581 163.757,229.821 165.714,180.455 165.714 L 142.857 165.714 142.857 132.756 L 142.857 99.798 182.500 100.256 C 219.294 100.681,222.612 100.931,228.668 103.733 M245.968 227.189 C 279.911 236.617,283.100 281.393,250.868 295.983 C 243.758 299.201,242.287 299.297,193.214 299.741 L 142.857 300.196 142.857 262.955 L 142.857 225.714 191.786 225.722 C 220.679 225.727,242.865 226.328,245.968 227.189 " stroke="none" fill-rule="evenodd"></path></g></svg>