<svg id="svg" xmlns="http://www.w3.org/2000/svg" xmlns:xlink="http://www.w3.org/1999/xlink" viewBox="0, 0, 400,400" version="1.1"><g id="svgg"><path id="path0" d="M166.667 35.733 C 28.918 64.659,-14.560 241.776,94.448 329.932 C 215.173 427.563,393.601 320.542,364.318 168.063 C 347.035 78.068,255.835 17.008,166.667 35.733 M229.875 62.765 C 337.534 85.316,377.249 220.923,299.086 299.086 C 234.747 363.425,125.690 350.172,79.653 272.419 C 16.952 166.522,109.380 37.526,229.875 62.765 M195.151 108.482 C 186.809 111.820,186.773 112.092,186.773 170.833 C 186.773 229.977,186.759 229.883,195.552 233.227 C 200.707 235.186,207.671 233.147,211.061 228.684 C 218.658 218.686,213.165 108.333,205.071 108.333 C 204.265 108.333,202.607 108.005,201.386 107.604 C 200.166 107.203,197.360 107.598,195.151 108.482 M187.727 262.727 C 176.816 273.638,184.462 291.667,200.000 291.667 C 215.538 291.667,223.184 273.638,212.273 262.727 C 208.765 259.219,206.290 258.333,200.000 258.333 C 193.710 258.333,191.235 259.219,187.727 262.727 " stroke="none" fill-rule="evenodd"></path></g></svg>