<svg xmlns="http://www.w3.org/2000/svg"  viewBox="0 0 48 48" width="256px" height="256px"><path d="M 16.501953 3.9824219 A 1.50015 1.50015 0 0 0 15.328125 6.4375 L 19.328125 11.4375 A 1.5007322 1.5007322 0 1 0 21.671875 9.5625 L 17.671875 4.5625 A 1.50015 1.50015 0 0 0 16.501953 3.9824219 z M 31.453125 3.984375 A 1.50015 1.50015 0 0 0 30.328125 4.5625 L 26.328125 9.5625 A 1.5007322 1.5007322 0 1 0 28.671875 11.4375 L 32.671875 6.4375 A 1.50015 1.50015 0 0 0 31.453125 3.984375 z M 12 14 C 6.4951777 14 2 18.495178 2 24 C 2 29.504822 6.4951777 34 12 34 L 17.5 34 A 1.50015 1.50015 0 1 0 17.5 31 L 12 31 C 8.1168223 31 5 27.883178 5 24 C 5 20.116822 8.1168223 17 12 17 L 17.5 17 A 1.50015 1.50015 0 1 0 17.5 14 L 12 14 z M 30.5 14 A 1.50015 1.50015 0 1 0 30.5 17 L 36 17 C 39.883178 17 43 20.116822 43 24 C 43 27.883178 39.883178 31 36 31 L 30.5 31 A 1.50015 1.50015 0 1 0 30.5 34 L 36 34 C 41.504822 34 46 29.504822 46 24 C 46 18.495178 41.504822 14 36 14 L 30.5 14 z M 27.501953 35.982422 A 1.50015 1.50015 0 0 0 26.328125 38.4375 L 30.328125 43.4375 A 1.5007322 1.5007322 0 1 0 32.671875 41.5625 L 28.671875 36.5625 A 1.50015 1.50015 0 0 0 27.501953 35.982422 z M 20.453125 35.984375 A 1.50015 1.50015 0 0 0 19.328125 36.5625 L 15.328125 41.5625 A 1.5007322 1.5007322 0 1 0 17.671875 43.4375 L 21.671875 38.4375 A 1.50015 1.50015 0 0 0 20.453125 35.984375 z"/></svg>