<svg id="svg" xmlns="http://www.w3.org/2000/svg" xmlns:xlink="http://www.w3.org/1999/xlink" width="400" height="400" viewBox="0, 0, 400,400"><g id="svgg"><path id="path0" d="M167.670 82.500 C 86.423 162.448,91.255 155.698,102.056 174.160 C 111.726 190.689,118.858 206.575,119.612 213.261 L 120.291 219.286 104.106 232.143 C 42.194 281.327,19.157 302.026,13.531 313.526 C -5.894 353.230,26.309 397.604,70.059 391.420 C 91.965 388.324,99.703 380.881,162.666 302.348 L 181.972 278.268 187.481 279.007 C 194.535 279.953,210.915 287.736,225.382 297.016 C 236.207 303.961,241.429 305.882,241.429 302.922 C 241.429 302.172,243.576 301.155,246.200 300.663 C 253.662 299.263,382.661 168.028,383.865 160.613 L 384.703 155.449 314.835 85.582 C 250.866 21.613,244.569 15.714,240.254 15.714 C 235.957 15.714,229.545 21.614,167.670 82.500 M238.254 95.081 C 242.365 97.961,242.267 101.495,237.895 107.937 C 221.707 131.791,247.982 153.463,271.586 135.727 C 293.183 119.500,309.502 139.921,291.435 160.567 C 276.317 177.844,280.343 199.042,299.837 204.798 L 305.693 206.527 295.685 216.457 L 285.678 226.388 229.648 170.358 L 173.619 114.328 182.071 105.787 L 190.523 97.246 193.150 101.566 C 199.714 112.360,211.537 111.977,224.337 100.556 C 233.983 91.949,233.854 92.000,238.254 95.081 M210.713 189.999 L 266.413 245.712 252.503 259.622 L 238.593 273.532 234.654 271.009 C 216.959 259.678,197.145 252.328,184.286 252.324 C 168.710 252.319,167.447 253.370,135.756 292.717 C 92.531 346.384,80.664 359.836,73.793 362.956 C 50.341 373.605,26.330 349.793,36.949 326.418 C 40.331 318.973,55.703 305.527,117.352 256.086 C 153.640 226.985,155.573 216.977,133.014 175.000 L 126.104 162.143 139.811 148.214 C 147.350 140.554,153.854 134.286,154.266 134.286 C 154.677 134.286,180.078 159.357,210.713 189.999 M56.008 325.782 C 52.025 327.381,48.412 335.420,49.558 340.132 C 52.321 351.490,68.442 354.204,73.624 344.184 C 79.890 332.066,68.915 320.602,56.008 325.782 " stroke="none" fill="#000000" fill-rule="evenodd"></path></g></svg>