<svg xmlns="http://www.w3.org/2000/svg" xmlns:xlink="http://www.w3.org/1999/xlink" id="svg" width="400" height="400" viewBox="0 0 400 400"><g id="svgg"><path id="path0" fill="#000" fill-rule="evenodd" stroke="none" d="M152.953 44.898 C 148.259 49.895,149.009 78.670,154.086 88.353 C 155.877 91.768,157.137 94.661,156.885 94.781 C 134.371 105.561,121.185 121.264,117.333 141.883 C 115.744 150.388,116.420 149.939,107.384 148.495 C 85.129 144.940,75.714 130.639,75.714 100.391 C 75.714 82.673,75.706 82.629,71.538 78.462 C 66.025 72.948,58.576 72.722,53.387 77.912 L 49.761 81.538 50.238 105.493 L 50.714 129.449 56.037 140.211 C 66.367 161.098,88.706 175.714,110.300 175.714 L 115.714 175.714 115.714 189.199 L 115.714 202.684 77.731 203.128 L 39.748 203.571 36.303 207.580 C 31.146 213.579,31.548 221.501,37.252 226.302 L 41.648 230.000 78.681 230.000 L 115.714 230.000 115.714 243.398 L 115.714 256.796 104.643 258.437 C 82.352 261.741,65.253 273.984,55.622 293.534 L 50.714 303.496 50.235 327.597 C 49.670 355.975,50.689 358.571,62.392 358.571 C 73.851 358.571,75.391 355.195,76.074 328.571 C 76.821 299.478,89.511 284.240,112.857 284.404 L 120.714 284.459 126.190 295.876 C 156.651 359.382,252.016 356.128,277.445 290.714 C 282.771 277.015,310.561 286.192,320.408 304.903 C 322.962 309.755,323.543 313.661,323.926 328.571 C 324.609 355.195,326.149 358.571,337.608 358.571 C 349.311 358.571,350.330 355.975,349.765 327.597 L 349.286 303.496 344.378 293.534 C 334.747 273.984,317.648 261.741,295.357 258.437 L 284.286 256.796 284.286 243.398 L 284.286 230.000 321.319 230.000 L 358.352 230.000 362.748 226.302 C 368.452 221.501,368.854 213.579,363.697 207.580 L 360.252 203.571 322.269 203.128 L 284.286 202.684 284.286 189.199 L 284.286 175.714 289.700 175.714 C 311.294 175.714,333.633 161.098,343.963 140.211 L 349.286 129.449 349.762 105.493 L 350.239 81.538 346.613 77.912 C 341.424 72.722,333.975 72.948,328.462 78.462 C 324.294 82.629,324.286 82.673,324.286 100.391 C 324.286 130.639,314.871 144.940,292.616 148.495 C 283.580 149.939,284.256 150.388,282.667 141.883 C 278.815 121.264,265.629 105.561,243.115 94.781 C 242.863 94.661,244.123 91.768,245.914 88.353 C 250.991 78.670,251.741 49.895,247.047 44.898 C 243.784 41.425,236.227 40.225,230.778 42.316 C 226.721 43.873,224.287 50.842,224.254 61.000 C 224.188 81.588,210.961 94.490,194.472 90.050 C 181.697 86.610,177.001 79.126,175.708 60.147 C 174.914 48.493,174.362 46.374,171.524 44.076 C 166.612 40.098,157.065 40.521,152.953 44.898 M236.612 121.037 C 256.438 131.558,257.379 135.761,256.857 211.429 L 256.429 273.571 252.256 282.083 C 228.611 330.312,161.476 325.106,145.461 273.801 C 142.246 263.501,141.467 152.830,144.537 142.581 C 147.636 132.240,159.464 121.320,170.714 118.415 C 181.055 115.746,230.335 117.706,236.612 121.037"/></g></svg>