<svg xmlns="http://www.w3.org/2000/svg" xmlns:xlink="http://www.w3.org/1999/xlink" id="svg" width="400" height="400" viewBox="0 0 400 400"><g id="svgg"><path id="path0" fill="#000" fill-rule="evenodd" stroke="none" d="M41.586 103.263 C 20.872 119.556,40.693 151.929,64.002 139.875 C 78.274 132.495,79.189 110.605,65.563 102.556 C 59.260 98.832,46.749 99.201,41.586 103.263 M103.085 111.761 C 97.745 117.445,98.022 125.804,103.712 130.698 L 108.050 134.429 234.632 134.011 L 361.214 133.594 364.201 129.905 C 368.460 124.645,368.075 116.371,363.352 111.648 L 359.517 107.813 233.156 107.813 L 106.795 107.813 103.085 111.761 M42.654 185.874 C 24.680 196.833,32.478 225.000,53.485 225.000 C 67.354 225.000,75.000 217.354,75.000 203.485 C 75.000 186.965,56.967 177.147,42.654 185.874 M103.712 194.302 C 98.022 199.196,97.745 207.555,103.085 213.239 L 106.795 217.188 233.156 217.188 L 359.517 217.188 363.352 213.352 C 368.075 208.629,368.460 200.355,364.201 195.095 L 361.214 191.406 234.632 190.989 L 108.050 190.571 103.712 194.302 M43.404 269.068 C 29.253 277.271,29.379 297.985,43.629 305.994 C 58.674 314.450,74.988 304.828,74.988 287.500 C 74.988 270.138,58.329 260.416,43.404 269.068 M104.275 276.953 C 97.812 281.861,98.100 294.912,104.749 298.470 C 106.546 299.432,154.543 300.000,234.000 300.000 L 360.393 300.000 363.790 296.384 C 368.446 291.428,368.342 282.879,363.571 278.397 L 359.955 275.000 233.401 275.000 C 134.571 275.000,106.284 275.428,104.275 276.953"/></g></svg>