<svg id="svg" xmlns="http://www.w3.org/2000/svg" xmlns:xlink="http://www.w3.org/1999/xlink" width="400" height="400" viewBox="0, 0, 400,400"><g id="svgg"><path id="path0" d="M170.853 35.152 C 40.099 58.765,-12.703 218.785,78.552 314.873 C 165.404 406.324,318.538 372.576,358.543 253.169 C 398.654 133.445,294.769 12.775,170.853 35.152 M228.280 62.105 C 337.940 85.443,378.353 220.348,299.350 299.350 C 211.033 387.667,59.531 324.904,59.531 200.000 C 59.531 126.576,110.989 70.203,187.857 59.416 C 195.035 58.409,218.130 59.945,228.280 62.105 M181.898 100.622 C 174.358 103.956,174.286 104.505,174.286 158.742 L 174.286 209.101 198.875 233.836 C 227.070 262.198,230.830 264.074,239.301 254.008 C 246.252 245.746,244.495 242.392,220.756 218.613 L 200.000 197.823 200.000 152.017 C 200.000 106.357,199.990 106.203,196.786 103.212 C 192.400 99.118,187.304 98.232,181.898 100.622 " stroke="none" fill="#000000" fill-rule="evenodd"></path></g></svg>