<svg id="svg" xmlns="http://www.w3.org/2000/svg" xmlns:xlink="http://www.w3.org/1999/xlink" width="400" height="400" viewBox="0, 0, 400,400"><g id="svgg"><path id="path0" d="M229.339 68.929 C 223.467 74.061,147.899 318.632,150.112 325.340 C 153.078 334.325,163.585 337.256,170.661 331.071 C 174.754 327.493,250.000 88.629,250.000 79.213 C 250.000 67.343,237.992 61.365,229.339 68.929 M105.714 109.484 C 96.856 115.725,17.063 193.393,16.272 196.543 C 14.464 203.747,17.439 207.228,60.687 248.499 C 110.650 296.179,115.061 298.860,123.567 286.716 C 129.483 278.269,127.769 275.503,100.375 249.299 C 86.419 235.949,69.214 219.396,62.143 212.513 L 49.286 200.000 62.143 187.487 C 69.214 180.604,86.419 164.051,100.375 150.701 C 124.331 127.786,125.749 126.133,125.732 121.151 C 125.697 110.670,113.839 103.759,105.714 109.484 M281.939 108.559 C 277.443 110.374,274.287 115.656,274.274 121.389 C 274.262 126.057,276.081 128.166,298.917 149.980 C 312.477 162.933,329.679 179.487,337.143 186.767 L 350.714 200.003 337.857 212.515 C 330.786 219.396,313.581 235.949,299.625 249.299 C 276.684 271.243,274.252 274.026,274.268 278.308 C 274.302 287.534,281.751 293.955,290.253 292.087 C 295.761 290.878,382.398 208.754,383.719 203.491 C 385.537 196.248,382.601 192.811,339.313 151.501 C 292.399 106.731,290.322 105.176,281.939 108.559 " stroke="none" fill="#000000" fill-rule="evenodd"></path></g></svg>