<svg id="svg" xmlns="http://www.w3.org/2000/svg" xmlns:xlink="http://www.w3.org/1999/xlink" width="400" height="400" viewBox="0, 0, 400,400"><g id="svgg"><path id="path0" d="M86.117 53.014 C 67.413 60.204,58.410 75.834,57.437 102.805 C 56.551 127.369,59.799 141.090,68.828 150.920 L 71.641 153.982 66.780 160.351 C 53.964 177.140,53.964 222.860,66.780 239.649 L 71.641 246.018 68.828 249.080 C 51.058 268.426,52.921 319.101,72.086 337.728 C 85.277 350.548,79.569 350.000,200.000 350.000 C 320.431 350.000,314.723 350.548,327.914 337.728 C 347.079 319.101,348.942 268.426,331.172 249.080 L 328.359 246.018 333.220 239.649 C 340.350 230.309,342.143 222.340,342.143 200.000 C 342.143 177.660,340.350 169.691,333.220 160.351 L 328.359 153.982 331.172 150.920 C 340.201 141.090,343.449 127.369,342.563 102.805 C 341.580 75.553,332.555 60.083,313.476 52.944 C 301.367 48.413,97.923 48.476,86.117 53.014 M304.257 78.217 C 313.738 82.980,315.715 88.070,315.712 107.711 C 315.709 128.683,313.966 133.361,304.340 138.214 L 297.966 141.429 200.000 141.429 L 102.034 141.429 95.660 138.214 C 78.868 129.746,78.927 86.665,95.743 78.217 C 103.388 74.375,296.612 74.375,304.257 78.217 M304.257 169.645 C 321.127 178.121,321.127 221.879,304.257 230.355 C 296.612 234.196,103.388 234.196,95.743 230.355 C 78.873 221.879,78.873 178.121,95.743 169.645 C 103.388 165.804,296.612 165.804,304.257 169.645 M304.340 261.786 C 313.966 266.639,315.709 271.317,315.712 292.289 C 315.716 326.368,323.263 324.281,200.000 324.281 C 76.737 324.281,84.284 326.368,84.288 292.289 C 84.291 271.317,86.034 266.639,95.660 261.786 L 102.034 258.571 200.000 258.571 L 297.966 258.571 304.340 261.786 " stroke="none" fill="#000000" fill-rule="evenodd"></path></g></svg>