<svg id="svg" xmlns="http://www.w3.org/2000/svg" xmlns:xlink="http://www.w3.org/1999/xlink" viewBox="0, 0, 400,400" version="1.1"><g id="svgg"><path id="path0" d="M64.126 59.285 C 59.473 61.814,56.505 68.657,57.785 73.901 C 58.432 76.550,78.886 98.029,119.710 138.929 L 180.669 200.000 119.710 261.071 C 52.575 328.330,52.217 328.805,61.079 338.901 C 69.847 348.888,70.790 348.175,139.635 279.508 L 199.984 219.314 261.063 280.282 C 303.132 322.274,323.413 341.559,326.222 342.246 C 335.260 344.454,344.434 335.191,342.215 326.099 C 341.568 323.450,321.112 301.969,280.282 261.063 L 219.314 199.984 279.508 139.635 C 348.175 70.790,348.888 69.847,338.901 61.079 C 328.805 52.217,328.330 52.575,261.063 119.718 L 199.984 180.686 139.635 120.492 C 71.289 52.323,73.556 54.160,64.126 59.285 " stroke="none" fill-rule="evenodd"></path></g></svg>