<svg id="svg" xmlns="http://www.w3.org/2000/svg" xmlns:xlink="http://www.w3.org/1999/xlink" viewBox="0, 0, 400,400" version="1.1"><g id="svgg"><path id="path0" d="M276.716 29.583 C 273.965 32.104,255.578 60.770,235.857 93.284 C 194.073 162.174,193.477 163.869,206.471 176.863 L 212.941 183.333 291.667 183.333 L 370.392 183.333 376.863 176.863 C 389.856 163.869,389.260 162.174,347.477 93.284 C 327.756 60.770,309.369 32.104,306.617 29.583 C 299.314 22.893,284.019 22.893,276.716 29.583 M93.333 45.131 C 76.120 52.914,66.710 68.021,66.683 87.917 L 66.667 100.000 56.925 100.000 C 42.353 100.000,35.297 111.866,44.092 121.584 C 48.860 126.853,109.473 126.853,114.242 121.584 C 123.111 111.783,115.980 100.000,101.179 100.000 L 91.208 100.000 92.330 90.450 C 95.032 67.461,94.558 67.602,171.210 66.992 L 235.073 66.484 238.885 60.326 C 240.982 56.938,244.401 51.354,246.484 47.917 L 250.272 41.667 175.553 41.703 C 104.021 41.738,100.513 41.885,93.333 45.131 M298.375 64.275 C 299.269 66.627,300.000 80.828,300.000 95.833 C 300.000 127.414,299.011 131.667,291.667 131.667 C 284.322 131.667,283.333 127.414,283.333 95.833 C 283.333 64.253,284.322 60.000,291.667 60.000 C 295.589 60.000,297.120 60.976,298.375 64.275 M66.667 150.000 L 66.667 158.333 56.925 158.333 C 45.411 158.333,41.000 161.795,41.000 170.833 C 41.000 182.622,43.173 183.333,79.167 183.333 C 115.160 183.333,117.333 182.622,117.333 170.833 C 117.333 161.795,112.923 158.333,101.408 158.333 L 91.667 158.333 91.667 150.000 L 91.667 141.667 79.167 141.667 L 66.667 141.667 66.667 150.000 M297.576 152.424 C 299.826 154.674,301.667 157.333,301.667 158.333 C 301.667 159.333,299.826 161.992,297.576 164.242 C 295.326 166.492,292.667 168.333,291.667 168.333 C 290.667 168.333,288.008 166.492,285.758 164.242 C 280.289 158.773,284.166 148.333,291.667 148.333 C 292.667 148.333,295.326 150.174,297.576 152.424 M66.667 208.333 L 66.667 216.667 56.925 216.667 C 45.411 216.667,41.000 220.129,41.000 229.167 C 41.000 240.955,43.173 241.667,79.167 241.667 C 115.160 241.667,117.333 240.955,117.333 229.167 C 117.333 220.129,112.923 216.667,101.408 216.667 L 91.667 216.667 91.667 208.333 L 91.667 200.000 79.167 200.000 L 66.667 200.000 66.667 208.333 M265.000 203.146 C 164.685 235.616,185.916 383.021,290.947 383.290 C 397.866 383.564,419.382 233.146,316.781 202.687 C 304.285 198.978,277.136 199.218,265.000 203.146 M272.891 262.056 L 291.667 280.779 310.578 261.921 C 327.103 245.443,330.101 243.132,334.328 243.615 C 345.354 244.873,342.264 251.844,321.412 272.755 L 302.554 291.667 321.412 310.578 C 342.264 331.489,345.354 338.461,334.328 339.719 C 330.101 340.201,327.103 337.890,310.578 321.412 L 291.667 302.554 272.755 321.412 C 251.844 342.264,244.873 345.354,243.615 334.328 C 243.132 330.101,245.443 327.103,261.921 310.578 L 280.779 291.667 262.056 272.891 C 243.964 254.747,240.208 248.681,244.444 244.444 C 248.681 240.208,254.747 243.964,272.891 262.056 M66.667 266.667 L 66.667 275.000 56.925 275.000 C 45.411 275.000,41.000 278.462,41.000 287.500 C 41.000 296.538,45.411 300.000,56.925 300.000 L 66.667 300.000 66.703 312.083 C 66.763 331.955,75.529 346.318,92.500 354.354 C 100.362 358.077,206.667 360.993,206.667 357.486 C 206.667 357.019,204.520 353.675,201.897 350.053 C 199.274 346.432,196.206 341.244,195.079 338.524 L 193.031 333.580 150.188 333.040 C 97.420 332.375,94.892 331.349,92.330 309.550 L 91.208 300.000 101.179 300.000 C 112.939 300.000,117.333 296.600,117.333 287.500 C 117.333 278.462,112.923 275.000,101.408 275.000 L 91.667 275.000 91.667 266.667 L 91.667 258.333 79.167 258.333 L 66.667 258.333 66.667 266.667 " stroke="none" fill-rule="evenodd"></path></g></svg>