<svg id="svg" xmlns="http://www.w3.org/2000/svg" xmlns:xlink="http://www.w3.org/1999/xlink" viewBox="0, 0, 400,400" version="1.1"><g id="svgg"><path id="path0" d="M166.667 35.733 C 28.918 64.659,-14.560 241.776,94.448 329.932 C 215.173 427.563,393.601 320.542,364.318 168.063 C 347.035 78.068,255.835 17.008,166.667 35.733 M229.875 62.765 C 337.534 85.316,377.249 220.923,299.086 299.086 C 234.747 363.425,125.690 350.172,79.653 272.419 C 16.952 166.522,109.380 37.526,229.875 62.765 M177.000 113.430 C 159.318 122.266,150.044 137.467,150.016 157.658 C 149.983 181.477,172.880 184.135,175.642 160.633 C 180.044 123.179,225.153 126.124,223.028 163.727 L 222.375 175.280 207.942 188.890 C 188.921 206.826,181.858 223.733,188.331 235.830 C 195.037 248.359,213.160 242.411,213.280 227.642 C 213.329 221.696,214.553 219.922,227.083 207.642 C 244.993 190.090,248.799 182.451,249.702 162.236 C 251.546 120.980,213.288 95.297,177.000 113.430 M187.727 271.061 C 176.816 281.972,184.462 300.000,200.000 300.000 C 215.538 300.000,223.184 281.972,212.273 271.061 C 208.765 267.552,206.290 266.667,200.000 266.667 C 193.710 266.667,191.235 267.552,187.727 271.061 " stroke="none" fill-rule="evenodd"></path></g></svg>