<svg id="svg" xmlns="http://www.w3.org/2000/svg" xmlns:xlink="http://www.w3.org/1999/xlink" viewBox="0, 0, 400,400" version="1.1"><g id="svgg"><path id="path0" d="M67.846 53.733 C 50.709 62.703,43.998 74.388,37.167 107.143 C 36.146 112.036,32.737 124.166,27.101 142.958 C 19.889 167.005,29.360 193.701,46.642 198.038 L 50.000 198.881 50.005 261.941 C 50.012 335.498,49.635 333.787,68.494 345.916 L 74.845 350.000 126.611 350.000 L 178.377 350.000 181.331 345.851 C 184.143 341.902,184.286 339.836,184.286 303.061 C 184.286 262.672,184.759 259.062,190.714 253.999 C 197.727 248.036,207.585 250.256,212.915 258.998 C 215.501 263.239,215.704 266.411,215.709 302.637 C 215.714 339.836,215.855 341.900,218.669 345.851 L 221.623 350.000 273.389 350.000 L 325.155 350.000 331.506 345.916 C 350.359 333.791,349.988 335.470,349.995 262.134 L 350.000 199.269 354.501 197.277 C 373.350 188.933,379.870 167.935,372.063 140.714 C 368.231 127.353,365.908 118.836,358.729 91.818 C 352.953 70.078,346.976 61.514,332.154 53.740 L 325.023 50.000 200.000 50.000 L 74.977 50.000 67.846 53.733 M321.555 80.169 C 328.152 85.201,331.342 93.056,337.731 120.000 C 338.755 124.321,341.385 134.286,343.575 142.143 C 349.641 163.905,349.693 165.945,344.304 170.480 L 339.781 174.286 303.819 174.278 C 259.069 174.269,263.272 176.218,240.760 145.032 C 215.403 109.906,212.569 107.256,200.265 107.174 C 195.250 107.141,181.429 112.413,181.429 114.360 C 181.429 114.992,180.407 116.532,179.159 117.780 C 177.911 119.028,174.054 124.056,170.589 128.953 C 167.124 133.850,161.556 141.630,158.216 146.240 C 154.876 150.851,151.500 155.712,150.714 157.041 C 141.099 173.314,138.062 174.274,96.181 174.280 L 60.219 174.286 55.696 170.480 C 50.347 165.979,50.376 163.927,56.086 142.857 C 64.093 113.310,66.022 106.099,68.124 97.857 C 74.225 73.931,63.908 75.617,201.540 76.059 L 316.652 76.429 321.555 80.169 M205.000 143.543 C 207.357 147.060,209.768 149.951,210.357 149.969 C 210.946 149.986,211.429 150.597,211.429 151.326 C 211.429 153.259,229.649 177.960,237.066 186.083 C 248.831 198.966,252.852 200.000,291.209 200.000 L 324.286 200.000 324.286 257.747 L 324.286 315.495 319.890 319.890 L 315.495 324.286 279.266 324.286 L 243.038 324.286 242.591 288.929 L 242.143 253.571 238.150 246.452 C 222.831 219.138,185.993 215.317,166.564 239.027 C 163.739 242.474,161.429 245.958,161.429 246.770 C 161.429 247.581,160.468 250.086,159.295 252.337 C 157.577 255.630,157.159 263.052,157.152 290.357 L 157.143 324.286 120.604 324.286 L 84.066 324.286 79.890 320.110 L 75.714 315.934 75.714 257.967 L 75.714 200.000 108.908 200.000 C 153.271 200.000,154.363 199.464,178.717 165.714 C 203.064 131.976,199.348 135.110,205.000 143.543 M110.128 232.986 C 95.408 238.872,94.936 277.402,109.516 282.945 C 125.058 288.854,134.289 279.554,134.280 257.995 C 134.272 237.306,124.536 227.226,110.128 232.986 M274.162 234.466 C 261.979 241.532,262.034 275.807,274.239 282.119 C 281.835 286.047,289.615 284.676,296.786 278.144 C 302.193 273.219,301.657 242.836,296.071 237.631 C 288.672 230.734,282.207 229.800,274.162 234.466 " stroke="none" fill-rule="evenodd"></path></g></svg>