<svg id="svg" xmlns="http://www.w3.org/2000/svg" xmlns:xlink="http://www.w3.org/1999/xlink" viewBox="0, 0, 400,400" version="1.1"><g id="svgg"><path id="path0" d="M75.714 53.078 C 66.817 57.336,57.593 66.482,53.469 75.138 L 50.000 82.419 50.000 199.995 L 50.000 317.572 53.929 325.387 C 58.305 334.094,67.126 342.640,76.341 347.100 C 82.364 350.016,83.730 350.044,201.572 349.667 L 320.714 349.286 329.286 343.571 C 335.000 339.762,339.762 335.000,343.571 329.286 L 349.286 320.714 349.667 201.497 L 350.048 82.280 346.281 74.833 C 341.724 65.827,334.574 58.733,325.011 53.731 L 317.880 50.000 200.011 50.001 C 82.290 50.002,82.135 50.006,75.714 53.078 M312.851 78.740 C 324.810 85.461,324.357 81.411,323.940 177.716 L 323.571 262.860 298.571 238.477 C 259.617 200.485,246.678 197.634,222.109 221.629 C 209.308 234.132,216.314 237.622,176.835 199.074 C 141.014 164.097,131.246 164.180,94.286 199.781 L 76.429 216.981 76.018 156.705 C 75.525 84.305,75.823 82.516,89.265 77.063 C 96.870 73.977,307.184 75.555,312.851 78.740 M238.886 109.698 C 200.420 125.864,212.358 184.286,254.128 184.286 C 304.524 184.286,306.063 109.891,255.714 107.613 C 247.758 107.253,243.426 107.790,238.886 109.698 M259.122 135.900 C 271.969 141.753,262.751 160.834,249.508 155.799 C 241.842 152.884,241.253 139.838,248.620 136.111 C 252.997 133.895,254.650 133.862,259.122 135.900 M156.199 218.155 C 165.754 227.354,177.429 238.604,182.143 243.154 L 190.714 251.427 165.000 276.388 C 150.857 290.117,133.953 306.511,127.436 312.818 L 115.586 324.286 104.059 324.286 C 79.904 324.286,75.714 318.084,75.714 282.334 L 75.714 257.200 89.643 243.455 C 121.750 211.771,133.142 201.429,135.933 201.429 C 137.685 201.429,145.681 208.028,156.199 218.155 M259.556 240.214 C 263.336 243.475,273.413 252.957,281.949 261.286 C 330.341 308.501,325.940 302.804,321.260 312.175 C 315.078 324.552,317.017 324.292,231.272 324.241 L 156.429 324.196 175.787 305.312 C 229.843 252.581,249.177 234.286,250.847 234.286 C 251.857 234.286,255.776 236.954,259.556 240.214 " stroke="none" fill-rule="evenodd"></path></g></svg>