<svg id="svg" xmlns="http://www.w3.org/2000/svg" xmlns:xlink="http://www.w3.org/1999/xlink" viewBox="0, 0, 400,400" version="1.1"><g id="svgg"><path id="path0" d="M190.562 190.594 C 16.350 364.841,26.139 353.839,36.581 363.649 C 45.887 372.391,47.252 371.452,96.112 322.711 L 140.722 278.209 147.385 283.912 C 222.713 348.391,328.518 239.938,260.486 167.980 L 255.787 163.010 273.713 145.139 C 290.086 128.817,291.966 127.418,295.410 129.002 C 303.319 132.638,319.794 146.438,333.800 161.157 C 353.475 181.834,362.161 196.828,374.447 231.314 C 380.864 249.327,401.332 245.287,399.537 226.361 C 396.127 190.400,358.087 137.791,313.214 106.978 C 312.818 106.706,324.806 94.094,339.854 78.952 C 370.033 48.583,372.224 44.623,363.419 36.351 C 353.191 26.743,364.216 16.905,190.562 190.594 M182.787 74.832 C 126.662 81.338,84.267 101.914,47.738 140.377 C 14.154 175.740,-9.205 228.587,4.117 239.066 C 11.420 244.811,21.403 242.610,24.273 234.623 C 37.981 196.480,48.902 177.813,69.820 156.772 C 112.768 113.571,175.929 92.891,231.466 103.845 L 242.441 106.009 252.778 95.573 C 264.631 83.605,264.602 83.525,247.181 79.548 C 227.389 75.029,199.012 72.951,182.787 74.832 M181.967 142.784 C 148.864 149.248,122.663 180.001,118.902 216.803 C 117.423 231.284,117.623 231.202,139.034 208.607 C 161.081 185.340,162.830 183.588,187.705 159.838 L 207.377 141.056 198.361 141.200 C 193.402 141.278,186.025 141.991,181.967 142.784 M249.616 200.000 C 271.201 244.096,221.282 292.794,176.895 270.942 C 156.032 260.671,154.409 264.481,198.449 220.349 L 236.885 181.832 241.445 187.227 C 243.953 190.195,247.630 195.943,249.616 200.000 " stroke="none" fill-rule="evenodd"></path></g></svg>