<svg id="svg" xmlns="http://www.w3.org/2000/svg" xmlns:xlink="http://www.w3.org/1999/xlink" viewBox="0, 0, 400,400" version="1.1"><g id="svgg"><path id="path0" d="M231.429 42.104 C 216.761 44.268,187.143 56.425,187.143 60.281 C 187.143 60.912,186.293 61.429,185.253 61.429 C 182.790 61.429,161.429 82.790,161.429 85.253 C 161.429 86.293,160.833 87.143,160.105 87.143 C 158.612 87.143,146.857 110.899,144.554 118.571 C 141.155 129.894,139.794 148.582,141.567 159.574 L 143.287 170.233 93.531 220.020 C 66.165 247.403,42.948 271.297,41.938 273.118 C 39.577 277.374,39.224 344.489,41.528 351.100 C 44.350 359.195,48.443 360.000,86.788 360.000 C 133.117 360.000,134.286 359.439,134.286 337.214 L 134.286 325.714 151.494 325.714 C 175.290 325.714,175.714 325.290,175.714 301.494 L 175.714 284.286 191.500 284.286 C 214.718 284.286,218.571 281.344,218.571 263.619 L 218.571 254.516 223.214 255.736 C 286.147 272.276,348.412 230.551,357.960 165.441 C 368.829 91.330,306.904 30.970,231.429 42.104 M275.990 72.390 C 300.725 81.439,318.059 98.514,327.220 122.857 C 332.168 136.006,332.293 165.562,327.445 176.253 C 325.707 180.085,324.286 183.769,324.286 184.440 C 324.286 192.334,292.334 224.286,284.440 224.286 C 283.769 224.286,280.085 225.707,276.253 227.445 C 261.244 234.251,224.495 231.137,210.754 221.895 C 199.117 214.069,190.000 224.313,190.000 245.213 L 190.000 257.143 173.764 257.143 C 150.177 257.143,150.000 257.324,150.000 281.532 L 150.000 300.000 131.532 300.000 C 108.145 300.000,107.143 300.801,107.143 319.478 L 107.143 331.429 87.857 331.429 L 68.571 331.429 68.571 307.829 L 68.571 284.229 119.237 233.630 C 172.228 180.709,173.064 179.665,170.187 170.062 C 152.462 110.899,217.396 50.955,275.990 72.390 M254.044 110.038 C 238.771 118.106,235.878 140.505,248.621 152.018 C 271.458 172.650,305.037 145.479,288.645 119.632 C 281.197 107.888,266.059 103.691,254.044 110.038 " stroke="none" fill-rule="evenodd"></path></g></svg>