<svg id="svg" xmlns="http://www.w3.org/2000/svg" xmlns:xlink="http://www.w3.org/1999/xlink" viewBox="0, 0, 400,400" version="1.1"><g id="svgg"><path id="path0" d="M85.000 109.959 C -7.370 133.862,-6.871 264.947,85.686 289.968 C 115.136 297.930,156.541 293.587,159.389 282.238 C 162.628 269.335,155.590 265.714,127.273 265.714 C 68.642 265.714,36.479 236.156,44.062 189.242 C 50.043 152.241,76.988 134.443,127.182 134.336 C 155.601 134.275,162.627 130.660,159.389 117.762 C 156.599 106.644,114.767 102.256,85.000 109.959 M245.246 110.062 C 238.307 115.520,239.359 128.691,247.064 132.815 C 248.614 133.645,259.971 134.308,273.120 134.336 C 328.113 134.454,355.977 156.311,356.131 199.449 C 356.287 243.051,327.920 265.714,273.190 265.714 C 246.822 265.714,244.004 266.481,241.405 274.359 C 236.200 290.129,242.752 293.248,279.584 292.529 C 317.391 291.791,326.447 289.246,347.909 273.333 C 389.555 242.453,396.449 182.317,363.153 140.362 C 352.382 126.789,333.075 114.797,314.261 109.994 C 297.474 105.708,250.723 105.754,245.246 110.062 M84.643 191.884 C 80.434 198.066,80.580 203.058,85.127 208.462 L 88.825 212.857 200.000 212.857 L 311.175 212.857 314.873 208.462 C 319.600 202.845,319.600 197.155,314.873 191.538 L 311.175 187.143 199.516 187.153 L 87.857 187.162 84.643 191.884 " stroke="none" fill-rule="evenodd"></path></g></svg>