<svg id="svg" xmlns="http://www.w3.org/2000/svg" xmlns:xlink="http://www.w3.org/1999/xlink" viewBox="0, 0, 400,400"><g xmlns="http://www.w3.org/2000/svg" id="svgg"><path id="path0" d="M183.855 34.422 C 150.402 42.295,132.964 68.721,132.892 111.652 L 132.857 132.589 112.500 133.080 C 89.496 133.635,83.420 135.818,74.350 146.784 C 65.773 157.154,65.714 157.860,65.714 250.095 C 65.714 350.998,65.694 350.880,85.462 362.501 L 92.143 366.429 200.000 366.429 L 307.857 366.429 314.538 362.501 C 323.218 357.399,329.562 349.602,332.184 340.812 C 335.301 330.363,335.301 169.637,332.184 159.188 C 326.612 140.511,315.030 133.744,287.500 133.080 L 267.143 132.589 267.108 111.652 C 267.057 81.294,263.484 69.843,249.301 54.580 C 232.555 36.561,207.526 28.852,183.855 34.422 M218.117 63.685 C 235.063 71.863,240.381 82.963,241.166 111.786 L 241.740 132.857 200.156 132.857 L 158.571 132.857 158.571 115.785 C 158.571 70.330,184.634 47.526,218.117 63.685 M303.457 162.749 L 307.143 166.212 307.143 250.000 L 307.143 333.788 303.456 337.251 L 299.770 340.714 200.000 340.714 L 100.230 340.714 96.544 337.251 L 92.857 333.788 92.857 249.878 L 92.857 165.968 97.286 162.241 L 101.715 158.515 200.743 158.900 L 299.771 159.286 303.457 162.749 M188.529 227.500 C 169.782 236.971,169.782 263.029,188.529 272.500 C 212.072 284.394,235.662 257.546,221.025 235.517 C 217.174 229.721,206.999 224.286,200.000 224.286 C 197.190 224.286,192.028 225.732,188.529 227.500 " stroke="none" fill="#000000" fill-rule="evenodd"/></g></svg>