<svg id="svg" xmlns="http://www.w3.org/2000/svg" xmlns:xlink="http://www.w3.org/1999/xlink" viewBox="0, 0, 400,400" version="1.1"><g id="svgg"><path id="path0" d="M185.000 32.313 C 144.384 38.409,120.718 48.174,94.143 69.802 C 80.911 80.571,60.505 103.713,56.249 112.776 C 54.937 115.571,53.407 118.179,52.849 118.571 C 49.296 121.073,39.020 149.306,35.430 166.429 C 2.908 321.533,184.775 428.891,308.571 327.668 C 332.678 307.957,339.378 294.872,330.110 285.604 C 322.114 277.608,314.069 280.519,302.109 295.735 C 298.814 299.928,280.113 315.211,272.857 319.640 C 216.747 353.894,141.130 343.593,97.993 295.817 C 95.561 293.124,92.607 289.874,91.429 288.595 C 78.442 274.500,65.926 247.062,62.093 224.286 C 42.130 105.656,165.570 20.176,271.303 79.412 C 278.104 83.222,298.684 99.751,302.137 104.177 C 314.038 119.429,323.642 122.572,330.843 113.571 C 338.736 103.705,332.215 91.773,307.771 71.357 C 275.036 44.015,221.169 26.884,185.000 32.313 M292.841 141.786 C 287.190 151.056,288.881 154.742,307.130 172.921 L 320.689 186.429 233.174 186.797 L 145.659 187.165 142.835 191.797 C 139.067 197.977,139.764 205.252,144.747 211.758 C 144.886 211.940,184.510 212.422,232.799 212.830 L 320.598 213.571 306.939 227.143 C 288.650 245.315,287.083 248.769,292.841 258.214 C 295.459 262.508,296.239 262.857,303.207 262.857 L 310.742 262.857 338.076 235.357 C 376.531 196.668,376.459 203.081,338.861 165.357 L 310.741 137.143 303.207 137.143 C 296.239 137.143,295.459 137.492,292.841 141.786 " stroke="none" fill-rule="evenodd"></path></g></svg>