<svg id="svg" xmlns="http://www.w3.org/2000/svg" xmlns:xlink="http://www.w3.org/1999/xlink" viewBox="0, 0, 400,400" version="1.1"><g id="svgg"><path id="path0" d="M71.241 67.882 C 55.794 72.115,41.580 85.540,35.052 102.062 C 31.715 110.510,29.746 274.687,32.811 288.978 C 37.465 310.679,53.050 327.566,72.778 332.285 C 84.757 335.151,316.029 335.119,326.806 332.250 C 347.800 326.661,363.212 309.774,367.249 287.937 C 368.131 283.165,368.521 247.502,368.268 194.746 L 367.857 109.286 364.569 101.429 C 357.230 83.889,343.695 71.654,327.291 67.731 C 315.955 65.020,81.180 65.158,71.241 67.882 M329.395 99.359 C 337.058 105.855,339.732 111.662,339.891 122.156 L 340.000 129.312 330.357 134.460 C 325.054 137.291,317.500 141.365,313.571 143.513 C 309.643 145.661,300.321 150.650,292.857 154.599 C 280.046 161.377,263.052 170.619,253.550 175.975 C 251.205 177.297,246.714 179.696,243.571 181.307 C 240.429 182.917,232.071 187.433,225.000 191.343 C 217.929 195.253,209.411 199.878,206.071 201.622 L 200.000 204.792 193.929 201.622 C 190.589 199.878,182.071 195.270,175.000 191.381 C 167.929 187.493,159.250 182.806,155.714 180.966 C 145.803 175.808,129.759 167.089,125.000 164.273 C 122.643 162.879,114.607 158.527,107.143 154.602 C 99.679 150.676,90.357 145.697,86.429 143.536 C 82.500 141.376,74.946 137.291,69.643 134.460 L 60.000 129.312 60.000 123.036 C 60.000 109.322,69.357 95.493,79.748 93.851 C 81.851 93.518,137.346 93.319,203.069 93.409 L 322.567 93.571 329.395 99.359 M80.714 172.136 C 89.357 176.983,99.964 182.751,104.286 184.953 C 108.607 187.156,115.357 190.794,119.286 193.039 C 123.214 195.283,128.357 198.030,130.714 199.144 C 133.071 200.258,139.500 203.700,145.000 206.794 C 154.381 212.070,162.707 216.590,186.107 229.108 C 198.195 235.574,201.805 235.574,213.893 229.108 C 219.216 226.260,228.393 221.356,234.286 218.209 C 240.179 215.062,246.929 211.360,249.286 209.982 C 253.368 207.596,260.144 203.934,284.286 191.066 C 298.865 183.294,311.514 176.411,324.286 169.297 C 330.179 166.015,336.125 162.922,337.500 162.424 C 339.856 161.570,340.000 165.043,340.000 222.784 C 340.000 292.592,340.036 292.349,328.427 301.543 L 322.258 306.429 200.000 306.429 L 77.742 306.429 71.536 301.514 C 59.918 292.312,60.067 293.324,60.031 223.259 C 60.002 165.059,60.143 161.570,62.500 162.421 C 63.875 162.917,72.071 167.289,80.714 172.136 " stroke="none" fill-rule="evenodd"></path></g></svg>