<svg id="svg" xmlns="http://www.w3.org/2000/svg" xmlns:xlink="http://www.w3.org/1999/xlink" viewBox="0, 0, 400,400" version="1.1"><g id="svgg"><path id="path0" d="M146.203 68.217 C 143.721 69.590,139.864 71.991,137.631 73.553 C 133.225 76.633,111.062 92.857,106.429 96.394 C 99.995 101.305,78.812 116.645,72.143 121.221 C 68.214 123.918,61.655 128.764,57.568 131.990 L 50.135 137.857 50.068 233.117 L 50.000 328.377 54.149 331.331 C 60.592 335.919,65.662 335.108,75.911 327.850 C 80.910 324.311,86.607 320.314,88.571 318.969 C 90.536 317.623,96.964 312.963,102.857 308.613 C 108.750 304.262,115.179 299.588,117.143 298.226 C 119.107 296.863,124.033 293.330,128.089 290.374 C 132.145 287.418,139.670 281.934,144.811 278.187 L 154.159 271.375 167.437 281.030 C 174.739 286.340,181.357 291.179,182.143 291.782 C 182.929 292.385,190.000 297.568,197.857 303.298 C 205.714 309.029,218.476 318.345,226.217 324.002 C 244.272 337.194,248.075 337.303,263.571 325.066 C 266.714 322.584,270.686 319.625,272.398 318.491 C 274.800 316.900,330.943 276.306,337.857 271.162 C 338.643 270.578,341.696 268.082,344.643 265.616 L 350.000 261.133 350.000 166.378 L 350.000 71.623 345.851 68.669 C 339.276 63.987,332.583 64.921,323.571 71.779 C 316.790 76.940,296.785 91.437,292.510 94.290 C 289.569 96.252,287.158 98.339,287.153 98.929 C 287.147 99.518,286.518 100.000,285.754 100.000 C 284.991 100.000,278.890 104.179,272.196 109.286 C 265.503 114.393,259.646 118.571,259.182 118.571 C 258.718 118.571,255.563 120.845,252.172 123.624 L 246.006 128.677 227.830 115.410 C 217.834 108.113,207.322 100.417,204.470 98.308 C 201.619 96.199,196.071 92.191,192.143 89.402 C 188.214 86.613,182.429 82.435,179.286 80.117 C 158.430 64.732,154.833 63.439,146.203 68.217 M324.286 176.303 L 324.286 246.892 315.357 252.954 C 310.446 256.288,306.214 259.559,305.952 260.222 C 305.690 260.886,304.644 261.429,303.627 261.429 C 302.610 261.429,300.945 262.433,299.927 263.660 C 298.908 264.887,294.811 268.144,290.823 270.896 C 286.835 273.649,281.000 277.793,277.857 280.105 C 274.714 282.418,269.411 286.211,266.071 288.535 L 260.000 292.760 260.000 222.830 L 260.000 152.899 275.357 141.540 C 291.020 129.955,297.808 125.017,309.389 116.786 C 312.981 114.232,317.642 110.717,319.746 108.974 C 321.850 107.231,323.732 105.784,323.929 105.759 C 324.125 105.735,324.286 137.479,324.286 176.303 M140.000 176.904 L 140.000 246.665 134.369 251.189 C 131.273 253.678,128.445 255.714,128.085 255.714 C 127.454 255.714,93.325 280.827,88.198 285.064 C 86.814 286.207,85.146 287.143,84.491 287.143 C 83.836 287.143,82.136 288.429,80.714 290.000 C 79.292 291.571,77.585 292.857,76.921 292.857 C 76.258 292.857,75.714 261.428,75.714 223.014 L 75.714 153.171 106.071 131.284 C 122.768 119.246,136.643 108.890,136.905 108.270 C 139.411 102.338,140.000 115.394,140.000 176.904 M189.473 122.047 C 194.870 125.923,205.393 133.670,212.857 139.263 C 220.321 144.855,227.554 149.860,228.929 150.385 C 231.263 151.276,231.429 156.028,231.429 222.176 L 231.429 293.014 225.884 289.007 C 222.834 286.803,215.923 281.829,210.527 277.953 C 205.130 274.077,194.607 266.330,187.143 260.737 C 179.679 255.145,172.446 250.140,171.071 249.615 C 168.737 248.724,168.571 243.972,168.571 177.824 L 168.571 106.986 174.116 110.993 C 177.166 113.197,184.077 118.171,189.473 122.047 " stroke="none" fill-rule="evenodd"></path></g></svg>