<svg id="svg" xmlns="http://www.w3.org/2000/svg" xmlns:xlink="http://www.w3.org/1999/xlink" width="400" height="400" viewBox="0, 0, 400,400"><g id="svgg"><path id="path0" d="M36.364 36.364 C 33.736 38.991,32.857 41.398,32.857 45.968 L 32.857 52.066 94.279 113.548 L 155.700 175.030 107.899 222.815 C 81.609 249.097,59.401 272.282,58.550 274.337 C 55.045 282.798,57.380 350.697,61.320 354.888 L 64.784 358.571 103.885 358.571 L 142.987 358.571 146.494 355.065 C 149.700 351.859,150.000 350.451,150.000 338.636 L 150.000 325.714 166.522 325.714 C 190.880 325.714,192.857 323.745,192.857 299.476 L 192.857 284.525 209.964 284.048 C 232.060 283.432,233.308 282.473,234.079 265.510 L 234.604 253.937 291.272 310.540 L 347.940 367.143 354.035 367.143 C 362.465 367.143,367.143 362.452,367.143 354.001 L 367.143 347.872 209.636 190.364 L 52.128 32.857 45.999 32.857 C 41.397 32.857,38.997 33.730,36.364 36.364 M240.000 44.352 C 209.295 52.281,183.188 73.240,169.177 101.211 L 163.919 111.707 174.382 122.240 C 180.137 128.034,185.114 132.505,185.442 132.177 C 185.770 131.849,187.460 127.513,189.197 122.543 C 212.468 55.945,306.343 48.803,339.025 111.143 C 363.258 157.369,337.156 218.898,288.929 229.232 C 282.758 230.554,282.746 230.525,294.542 242.401 L 304.799 252.727 317.757 246.073 C 379.925 214.151,394.857 127.816,347.062 76.637 C 319.249 46.856,278.220 34.484,240.000 44.352 M275.292 109.038 C 262.869 112.878,255.099 127.103,258.508 139.763 C 266.129 168.068,308.447 163.095,308.548 133.883 C 308.612 115.227,293.001 103.565,275.292 109.038 M207.460 242.500 L 206.875 257.143 192.936 257.143 C 168.174 257.143,165.714 259.589,165.714 284.215 L 165.714 300.000 148.730 300.000 C 125.776 300.000,125.180 300.471,124.505 319.158 L 124.010 332.857 104.148 332.857 L 84.286 332.857 84.286 308.937 L 84.286 285.016 129.635 239.651 L 174.984 194.285 191.515 211.071 L 208.046 227.857 207.460 242.500 " stroke="none" fill="#000000" fill-rule="evenodd"></path></g></svg>