<svg id="svg" xmlns="http://www.w3.org/2000/svg" xmlns:xlink="http://www.w3.org/1999/xlink" viewBox="0, 0, 400,400" version="1.1"><g id="svgg"><path id="path0" d="M172.143 42.091 C 124.174 47.349,74.613 77.111,54.478 112.751 C 44.007 131.286,43.552 132.199,40.213 141.429 C 16.407 207.228,47.560 252.053,109.286 240.815 C 146.475 234.044,152.497 233.686,157.323 237.961 C 160.609 240.872,168.571 256.977,168.571 260.713 C 168.571 261.925,169.815 267.565,171.334 273.244 C 172.853 278.924,175.533 289.036,177.288 295.714 C 189.667 342.809,222.914 365.822,267.365 358.063 C 352.857 343.141,396.072 221.182,347.637 131.521 C 312.813 67.056,247.592 33.820,172.143 42.091 M231.745 72.741 C 265.911 82.003,291.159 99.664,315.290 131.180 C 334.650 156.465,343.885 200.377,337.900 238.696 C 335.126 256.455,331.518 266.061,318.828 289.471 C 316.694 293.408,293.656 316.922,289.286 319.623 C 274.307 328.883,268.256 330.677,252.143 330.637 C 219.281 330.554,212.282 321.508,196.409 258.602 C 185.792 216.527,165.132 201.417,128.853 209.194 C 84.881 218.620,70.320 215.778,62.127 196.170 C 55.341 179.930,67.094 138.151,83.794 119.144 C 93.199 108.440,95.868 105.762,102.886 99.986 C 137.518 71.484,187.853 60.842,231.745 72.741 M188.571 91.585 C 170.057 96.826,168.740 123.845,186.585 132.313 C 192.701 135.215,203.084 134.312,208.289 130.426 C 228.902 115.036,213.425 84.548,188.571 91.585 M242.878 110.083 C 229.391 117.602,228.327 137.144,240.867 147.008 C 247.026 151.853,262.702 151.318,268.304 146.071 C 287.929 127.692,266.273 97.040,242.878 110.083 M275.568 160.386 C 266.632 166.356,263.341 178.271,267.732 188.754 C 274.799 205.621,300.789 204.392,307.804 186.858 C 315.629 167.301,293.015 148.730,275.568 160.386 M285.366 217.684 C 270.185 224.414,270.725 250.879,286.175 257.357 C 305.698 265.542,324.726 246.473,315.680 227.787 C 310.655 217.406,296.577 212.714,285.366 217.684 M242.878 260.083 C 229.391 267.602,228.327 287.144,240.867 297.008 C 247.026 301.853,262.702 301.318,268.304 296.071 C 287.929 277.692,266.273 247.040,242.878 260.083 " stroke="none" fill-rule="evenodd"></path></g></svg>