<svg id="svg" xmlns="http://www.w3.org/2000/svg" xmlns:xlink="http://www.w3.org/1999/xlink" viewBox="0, 0, 400,400" version="1.1"><g id="svgg"><path id="path0" d="M144.122 43.399 C 131.808 47.800,47.695 131.677,43.771 143.469 C 34.443 171.500,41.432 180.201,100.261 213.801 L 144.093 238.835 160.195 279.060 C 183.954 338.413,181.418 337.651,221.713 297.539 L 250.017 269.363 294.704 313.967 L 339.391 358.571 345.875 358.571 C 354.546 358.571,358.571 354.483,358.571 345.675 L 358.571 339.391 313.967 294.704 L 269.363 250.017 297.539 221.713 C 337.651 181.418,338.413 183.954,279.060 160.195 L 238.835 144.093 213.801 100.261 C 200.032 76.153,186.633 54.376,184.026 51.867 C 174.093 42.307,157.206 38.724,144.122 43.399 M164.078 69.643 C 165.709 71.018,178.389 92.071,192.257 116.429 C 223.099 170.601,216.686 164.168,255.002 179.366 C 272.680 186.377,287.143 192.445,287.143 192.851 C 287.143 194.111,193.000 287.768,192.425 287.079 C 192.126 286.721,186.287 272.286,179.449 255.000 C 164.385 216.919,170.204 222.663,114.535 190.919 C 68.709 164.788,65.811 162.597,67.624 155.462 C 68.088 153.637,87.641 133.018,111.075 109.643 C 156.198 64.633,157.220 63.862,164.078 69.643 " stroke="none" fill-rule="evenodd"></path></g></svg>