<svg id="svg" xmlns="http://www.w3.org/2000/svg" xmlns:xlink="http://www.w3.org/1999/xlink" viewBox="0, 0, 400,400" version="1.1"><g id="svgg"><path id="path0" d="M70.392 52.363 C 62.286 55.233,50.714 65.896,45.992 74.846 L 42.143 82.143 42.143 200.000 L 42.143 317.857 45.992 325.154 C 50.881 334.420,62.358 344.789,70.977 347.726 C 81.096 351.174,318.904 351.174,329.023 347.726 C 337.642 344.789,349.119 334.420,354.008 325.154 L 357.857 317.857 357.857 200.000 L 357.857 82.143 354.008 74.846 C 349.119 65.580,337.642 55.211,329.023 52.274 C 319.260 48.948,79.805 49.030,70.392 52.363 M332.532 222.500 L 332.143 310.714 328.716 315.519 C 322.217 324.632,327.294 324.286,200.000 324.286 C 72.706 324.286,77.783 324.632,71.284 315.519 L 67.857 310.714 67.468 222.500 L 67.079 134.286 200.000 134.286 L 332.921 134.286 332.532 222.500 M105.473 167.829 C 96.539 172.845,97.652 187.906,107.202 191.235 C 130.121 199.225,153.405 182.721,138.396 169.125 C 134.375 165.482,111.272 164.573,105.473 167.829 M173.367 167.131 C 163.433 171.140,163.101 185.669,172.829 190.699 C 178.769 193.772,286.116 193.922,293.424 190.868 C 302.729 186.980,303.241 172.488,294.238 167.832 C 289.579 165.423,179.187 164.782,173.367 167.131 M105.473 217.829 C 96.539 222.845,97.652 237.906,107.202 241.235 C 130.121 249.225,153.405 232.721,138.396 219.125 C 134.375 215.482,111.272 214.573,105.473 217.829 M173.367 217.131 C 163.433 221.140,163.101 235.669,172.829 240.699 C 178.769 243.772,286.116 243.922,293.424 240.868 C 302.729 236.980,303.241 222.488,294.238 217.832 C 289.579 215.423,179.187 214.782,173.367 217.131 M105.473 267.829 C 96.539 272.845,97.652 287.906,107.202 291.235 C 130.121 299.225,153.405 282.721,138.396 269.125 C 134.375 265.482,111.272 264.573,105.473 267.829 M173.367 267.131 C 163.433 271.140,163.101 285.669,172.829 290.699 C 178.769 293.772,286.116 293.922,293.424 290.868 C 302.729 286.980,303.241 272.488,294.238 267.832 C 289.579 265.423,179.187 264.782,173.367 267.131 " stroke="none" fill-rule="evenodd"></path></g></svg>