<svg id="svg" xmlns="http://www.w3.org/2000/svg" xmlns:xlink="http://www.w3.org/1999/xlink" viewBox="0, 0, 400,400" version="1.1"><g id="svgg"><path id="path0" d="M141.803 51.758 C 73.774 66.802,38.417 141.289,69.100 204.918 C 75.712 218.628,76.946 219.982,145.653 288.934 C 222.536 366.090,220.720 364.675,230.402 354.993 C 239.916 345.479,241.131 347.053,166.514 272.213 C 91.208 196.682,89.594 194.629,85.243 168.836 C 76.289 115.749,128.070 65.834,179.937 77.556 C 203.384 82.854,206.780 85.350,253.279 131.464 L 295.902 173.734 252.141 173.752 C 208.476 173.770,208.370 173.779,203.862 177.656 C 198.264 182.472,197.618 191.792,202.541 196.706 C 205.437 199.596,271.098 201.280,333.133 200.055 C 342.407 199.872,342.623 198.256,342.623 129.125 L 342.623 65.425 338.599 61.401 C 333.621 56.423,326.559 56.176,320.713 60.775 L 316.393 64.172 316.393 109.404 L 316.393 154.635 273.361 112.099 C 213.375 52.805,188.552 41.420,141.803 51.758 " stroke="none" fill-rule="evenodd"></path></g></svg>