<svg xmlns="http://www.w3.org/2000/svg" xmlns:xlink="http://www.w3.org/1999/xlink" id="svg" version="1.1" viewBox="0 0 400 400"><g id="svgg"><path id="path0" fill-rule="evenodd" stroke="none" d="M307.857 49.568 C 300.937 51.328,300.000 53.788,300.000 70.197 L 300.000 85.665 288.214 77.287 C 218.184 27.504,121.906 45.068,73.455 116.464 C 23.258 190.434,53.108 297.611,134.663 336.233 C 236.867 384.633,351.754 310.651,349.735 197.735 L 349.286 172.603 345.277 169.159 C 332.948 158.563,320.237 168.597,323.174 186.608 C 325.459 200.621,321.108 234.074,315.697 244.098 C 315.005 245.380,312.748 249.964,310.681 254.286 C 299.071 278.558,278.558 299.071,254.286 310.681 C 249.964 312.748,245.366 315.014,244.068 315.716 C 226.031 325.472,174.095 325.478,155.932 315.725 C 154.634 315.028,149.714 312.581,145.000 310.287 C 125.717 300.905,115.610 292.195,97.224 269.115 C 96.524 268.236,93.578 262.772,90.679 256.972 C 87.779 251.173,84.867 245.366,84.207 244.068 C 80.235 236.253,76.433 214.134,76.510 199.286 C 76.956 112.676,164.048 53.633,245.010 85.054 C 255.228 89.020,266.190 94.988,268.609 97.903 C 269.567 99.056,270.881 100.000,271.530 100.000 C 272.179 100.000,274.444 101.607,276.564 103.571 L 280.417 107.143 264.687 107.143 C 243.165 107.143,235.336 113.979,242.031 126.927 C 245.678 133.978,247.383 134.286,282.834 134.286 C 329.595 134.286,325.714 138.215,325.714 90.867 C 325.714 54.411,324.910 50.057,318.159 49.980 C 317.207 49.970,315.143 49.709,313.571 49.401 C 312.000 49.094,309.429 49.169,307.857 49.568"/></g></svg>