<svg id="svg" xmlns="http://www.w3.org/2000/svg" xmlns:xlink="http://www.w3.org/1999/xlink" viewBox="0, 0, 400,400" version="1.1"><g id="svgg"><path id="path0" d="M51.935 42.026 C 32.832 46.660,24.318 60.214,24.299 86.022 L 24.286 104.186 28.906 109.449 C 35.632 117.109,40.373 118.571,58.489 118.571 L 74.212 118.571 74.606 219.643 L 75.000 320.714 78.392 327.143 C 82.406 334.751,93.768 348.487,97.007 349.648 C 98.260 350.097,101.029 351.672,103.160 353.148 C 112.290 359.472,122.383 360.001,233.340 359.978 C 347.701 359.953,349.273 359.851,360.495 351.732 C 372.000 343.408,374.930 336.291,375.471 315.352 C 376.209 286.771,370.890 281.429,341.692 281.429 L 325.714 281.429 325.714 175.280 L 325.714 69.132 321.975 61.629 C 317.176 51.999,306.540 43.791,296.001 41.585 C 284.676 39.214,61.867 39.617,51.935 42.026 M250.000 79.286 L 250.000 90.000 149.801 90.000 L 49.602 90.000 50.448 82.858 C 50.913 78.930,52.449 74.129,53.861 72.189 L 56.429 68.661 153.214 68.616 L 250.000 68.571 250.000 79.286 M295.822 72.258 L 299.286 75.944 299.612 203.717 L 299.938 331.491 209.506 331.102 L 119.074 330.714 113.723 327.143 C 110.716 325.137,106.693 320.441,104.542 316.429 L 100.714 309.286 100.300 213.929 L 99.886 118.571 177.443 118.563 C 276.438 118.553,274.534 119.088,275.502 91.013 C 276.246 69.436,285.311 61.069,295.822 72.258 M134.383 154.149 C 130.104 160.159,130.548 166.482,135.604 171.538 L 139.780 175.714 199.572 175.714 C 265.021 175.714,263.514 175.904,267.108 167.227 C 269.240 162.079,268.324 157.521,264.285 153.186 L 261.317 150.000 199.327 150.000 L 137.337 150.000 134.383 154.149 M136.294 210.710 C 130.370 215.799,130.299 225.805,136.151 230.838 L 140.159 234.286 199.723 234.279 L 259.286 234.272 263.571 230.843 C 269.721 225.923,269.788 215.935,263.706 210.710 L 259.556 207.143 200.000 207.143 L 140.444 207.143 136.294 210.710 M135.426 270.069 C 129.894 275.600,130.335 283.513,136.492 289.220 L 140.417 292.857 200.061 292.857 L 259.704 292.857 264.289 287.636 C 269.982 281.151,269.591 274.046,263.260 268.936 L 259.286 265.728 199.533 265.721 L 139.780 265.714 135.426 270.069 M350.000 314.332 C 350.000 320.279,346.551 328.023,343.072 329.885 C 334.185 334.641,325.714 328.321,325.714 316.934 L 325.714 310.000 337.857 310.000 L 350.000 310.000 350.000 314.332 " stroke="none" fill-rule="evenodd"></path></g></svg>