<svg id="svg" xmlns="http://www.w3.org/2000/svg" xmlns:xlink="http://www.w3.org/1999/xlink" viewBox="0, 0, 400,400" version="1.1"><g id="svgg"><path id="path0" d="M82.394 50.721 C 69.143 54.363,54.921 67.873,51.103 80.446 C 48.491 89.046,48.462 310.864,51.071 319.437 C 55.019 332.408,69.324 345.699,83.357 349.436 C 95.053 352.550,305.755 352.327,316.549 349.189 C 331.549 344.829,343.985 333.139,348.852 318.825 C 350.727 313.310,352.461 135.663,350.732 126.161 C 350.061 122.470,344.974 117.226,323.881 98.481 C 309.568 85.762,292.772 70.775,286.556 65.178 C 280.340 59.580,273.305 53.554,270.921 51.786 L 266.588 48.571 177.937 48.699 C 109.052 48.798,87.749 49.249,82.394 50.721 M107.143 101.692 C 107.143 150.461,108.704 151.429,187.411 151.429 C 264.392 151.429,265.794 150.669,267.143 108.244 L 267.857 85.774 272.889 90.387 C 275.656 92.924,283.370 99.819,290.032 105.708 C 296.693 111.598,302.848 117.062,303.709 117.851 C 304.571 118.640,309.553 123.048,314.781 127.646 L 324.286 136.006 324.286 221.123 C 324.286 304.149,324.213 306.390,321.343 312.320 C 318.282 318.644,309.689 324.286,303.120 324.286 L 300.000 324.286 300.000 272.086 C 300.000 210.774,299.546 208.795,283.861 201.786 C 278.255 199.280,122.020 199.199,116.139 201.698 C 100.637 208.286,100.000 211.074,100.000 272.317 L 100.000 324.286 96.880 324.286 C 90.311 324.286,81.718 318.644,78.657 312.320 C 74.055 302.813,74.043 97.212,78.644 87.707 C 82.260 80.238,90.446 75.717,100.357 75.715 L 107.143 75.714 107.143 101.692 M239.677 99.643 L 239.286 123.571 188.740 123.947 C 152.624 124.215,137.637 123.860,136.240 122.701 C 134.737 121.453,134.286 115.843,134.286 98.397 L 134.286 75.714 187.177 75.714 L 240.069 75.714 239.677 99.643 M272.857 275.000 L 272.857 324.286 199.286 324.286 L 125.714 324.286 125.714 275.952 C 125.714 249.369,126.143 227.190,126.667 226.667 C 127.190 226.143,160.298 225.714,200.238 225.714 L 272.857 225.714 272.857 275.000 " stroke="none" fill-rule="evenodd"></path></g></svg>