<svg id="svg" xmlns="http://www.w3.org/2000/svg" xmlns:xlink="http://www.w3.org/1999/xlink" viewBox="0, 0, 400,400" version="1.1"><g id="svgg"><path id="path0" d="M137.857 53.131 C 128.375 55.922,117.756 60.555,105.000 67.464 C 97.602 71.472,71.472 97.602,67.464 105.000 C 43.080 150.016,42.918 193.218,66.975 235.331 C 72.241 244.548,94.269 268.571,97.455 268.571 C 98.135 268.571,100.052 269.840,101.716 271.390 C 130.369 298.084,194.989 298.999,236.792 273.302 L 247.156 266.932 288.081 307.869 C 310.589 330.385,330.594 349.411,332.536 350.150 C 343.787 354.427,354.390 343.690,350.089 332.376 C 349.287 330.268,330.254 310.222,307.793 287.830 L 266.955 247.119 273.314 236.774 C 298.999 194.989,298.078 130.362,271.390 101.716 C 269.840 100.052,268.571 98.162,268.571 97.515 C 268.571 94.516,244.540 72.347,235.714 67.205 C 206.633 50.260,166.983 44.557,137.857 53.131 M190.843 78.553 C 242.873 91.624,273.591 138.908,262.912 189.489 C 260.407 201.356,258.453 206.438,250.691 221.280 C 247.409 227.556,227.556 247.409,221.280 250.691 C 206.438 258.453,201.356 260.407,189.489 262.912 C 121.037 277.363,60.188 212.365,79.772 145.714 C 90.734 108.406,117.559 85.098,159.286 76.626 C 166.671 75.126,180.585 75.976,190.843 78.553 " stroke="none" fill-rule="evenodd"></path></g></svg>