<svg id="svg" xmlns="http://www.w3.org/2000/svg" xmlns:xlink="http://www.w3.org/1999/xlink" viewBox="0, 0, 400,400"><g xmlns="http://www.w3.org/2000/svg" id="svgg"><path id="path0" d="M251.806 52.943 C 242.069 56.791,232.232 66.640,228.979 75.798 L 226.472 82.857 133.445 82.857 L 40.417 82.857 36.637 86.360 C 31.472 91.148,31.342 100.043,36.364 105.065 L 39.870 108.571 133.506 108.571 C 221.726 108.571,227.144 108.716,227.156 111.071 C 227.179 115.233,235.361 128.157,240.413 132.010 C 264.781 150.597,300.362 143.137,312.100 116.982 L 315.875 108.571 338.002 108.571 C 363.909 108.571,367.143 107.144,367.143 95.711 C 367.143 84.451,363.498 82.857,337.753 82.857 L 315.924 82.857 312.476 75.357 C 302.388 53.413,275.632 43.528,251.806 52.943 M279.022 77.321 C 292.332 84.176,294.875 100.569,284.215 110.782 C 277.508 117.208,263.524 117.040,256.939 110.455 C 241.621 95.138,260.019 67.534,279.022 77.321 M120.164 154.491 C 104.914 156.980,94.118 165.299,87.524 179.643 L 84.076 187.143 61.973 187.143 C 36.096 187.143,32.857 188.573,32.857 200.000 C 32.857 211.427,36.096 212.857,61.973 212.857 L 84.076 212.857 87.524 220.357 C 103.665 255.469,158.455 255.001,171.101 219.643 L 173.528 212.857 266.829 212.857 L 360.130 212.857 363.636 209.351 C 366.216 206.771,367.143 204.300,367.143 200.000 C 367.143 195.700,366.216 193.229,363.636 190.649 L 360.130 187.143 266.607 187.143 L 173.084 187.143 172.177 183.011 C 167.928 163.666,144.078 150.588,120.164 154.491 M138.706 182.212 C 151.963 189.068,151.774 211.030,138.398 217.947 C 131.528 221.499,121.041 220.103,115.625 214.914 C 98.749 198.746,117.982 171.496,138.706 182.212 M242.857 259.057 C 227.093 262.688,215.895 272.334,211.495 286.071 L 209.778 291.429 124.824 291.429 L 39.870 291.429 36.364 294.935 C 31.342 299.957,31.472 308.852,36.637 313.640 L 40.417 317.143 124.946 317.143 L 209.474 317.143 212.725 324.985 C 226.915 359.223,283.196 358.420,296.421 323.791 L 298.960 317.143 329.545 317.143 C 364.960 317.143,367.143 316.396,367.143 304.286 C 367.143 292.179,364.951 291.429,329.614 291.429 L 299.097 291.429 295.847 283.587 C 288.011 264.681,264.893 253.979,242.857 259.057 M264.343 286.458 C 277.077 293.043,276.789 315.775,263.894 321.894 C 245.702 330.527,228.509 313.735,236.343 294.985 C 240.288 285.544,254.314 281.272,264.343 286.458 " stroke="none" fill="#000000" fill-rule="evenodd"/></g></svg>