<svg id="svg" xmlns="http://www.w3.org/2000/svg" xmlns:xlink="http://www.w3.org/1999/xlink" width="400" height="400" viewBox="0, 0, 400,400"><g id="svgg"><path id="path0" d="M172.441 35.021 C 153.854 38.145,152.464 39.873,150.069 62.836 C 146.869 93.514,133.909 100.445,104.309 87.306 C 88.871 80.453,84.666 80.091,78.711 85.102 C 66.660 95.242,46.448 128.876,40.984 147.879 C 37.802 158.949,39.712 162.526,54.911 173.963 C 81.517 193.985,81.517 205.985,54.911 226.064 C 38.246 238.641,37.322 240.775,42.225 255.379 C 52.018 284.552,76.159 318.571,87.068 318.571 C 89.264 318.571,97.585 315.679,105.559 312.143 C 133.997 299.534,146.901 306.788,150.069 337.164 C 152.775 363.108,159.480 367.132,200.000 367.132 C 240.520 367.132,247.225 363.108,249.931 337.164 C 253.134 306.454,266.030 299.528,295.584 312.647 C 311.145 319.554,315.325 319.916,321.312 314.879 C 333.210 304.867,353.617 270.900,359.016 252.121 C 362.198 241.051,360.288 237.474,345.089 226.037 C 318.482 206.014,318.482 193.986,345.089 173.963 C 360.288 162.526,362.198 158.949,359.016 147.879 C 353.552 128.876,333.340 95.242,321.289 85.102 C 315.344 80.100,311.127 80.454,295.834 87.243 C 264.753 101.039,252.205 93.125,249.239 57.857 C 247.754 40.206,245.581 38.064,225.916 34.872 C 210.887 32.432,187.453 32.498,172.441 35.021 M211.936 60.152 C 223.344 61.848,224.286 62.873,224.286 73.600 C 224.286 106.970,266.476 130.516,299.082 115.344 C 303.685 113.202,308.027 111.806,308.732 112.242 C 311.256 113.802,321.642 130.212,326.436 140.215 L 331.319 150.405 322.163 157.337 C 291.753 180.358,291.753 219.642,322.163 242.663 L 331.319 249.595 326.436 259.785 C 321.642 269.788,311.256 286.198,308.732 287.758 C 308.027 288.194,303.685 286.798,299.082 284.656 C 266.476 269.484,224.286 293.030,224.286 326.400 C 224.286 337.263,223.424 338.160,211.278 339.936 C 186.322 343.585,175.714 339.548,175.714 326.400 C 175.714 292.962,133.591 269.453,100.918 284.656 C 96.315 286.798,91.973 288.194,91.268 287.758 C 88.744 286.198,78.358 269.788,73.564 259.785 L 68.681 249.595 77.837 242.663 C 108.247 219.642,108.247 180.358,77.837 157.337 L 68.681 150.405 73.564 140.215 C 78.407 130.111,88.751 113.797,91.325 112.207 C 92.062 111.752,96.404 113.135,100.975 115.281 C 133.537 130.567,175.714 107.046,175.714 73.600 C 175.714 63.221,176.898 61.722,186.229 60.286 C 198.564 58.387,200.019 58.379,211.936 60.152 M183.855 134.422 C 166.835 138.428,146.961 154.472,139.586 170.160 C 106.563 240.409,197.598 302.064,249.880 244.859 C 294.006 196.579,247.842 119.364,183.855 134.422 M215.520 162.268 C 245.541 174.812,249.527 215.758,222.486 233.830 C 185.958 258.243,141.663 213.984,166.170 177.559 C 177.113 161.294,197.827 154.876,215.520 162.268 " stroke="none" fill="#000000" fill-rule="evenodd"></path></g></svg>