<svg id="svg" xmlns="http://www.w3.org/2000/svg" xmlns:xlink="http://www.w3.org/1999/xlink" viewBox="0, 0, 400,400" version="1.1"><g id="svgg"><path id="path0" d="M187.143 33.441 C 183.607 34.542,179.107 35.926,177.143 36.518 C 163.238 40.704,145.472 61.532,142.183 77.500 L 141.374 81.429 96.469 81.429 C 48.113 81.429,45.666 81.759,42.036 88.779 C 35.706 101.020,44.079 110.000,61.823 110.000 L 71.072 110.000 72.731 128.929 C 73.644 139.339,75.623 160.393,77.130 175.714 C 78.636 191.036,81.536 220.929,83.574 242.143 C 89.982 308.847,93.096 334.862,95.204 339.286 C 101.260 351.997,107.942 358.605,120.761 364.561 C 131.729 369.656,259.380 370.507,274.681 365.587 C 289.181 360.925,301.023 350.051,305.435 337.348 C 307.151 332.408,310.493 303.193,315.754 247.143 C 317.414 229.464,320.297 199.893,322.162 181.429 C 324.026 162.964,326.305 139.404,327.226 129.072 L 328.900 110.288 340.141 109.777 C 358.597 108.939,366.299 96.032,354.588 85.568 L 349.955 81.429 304.318 81.429 L 258.682 81.429 257.070 75.443 C 249.123 45.930,214.271 24.996,187.143 33.441 M211.151 62.045 C 214.339 63.170,218.438 65.552,220.259 67.340 C 224.526 71.526,230.000 78.797,230.000 80.278 C 230.000 80.911,216.500 81.429,200.000 81.429 C 183.500 81.429,170.000 80.882,170.000 80.214 C 170.000 78.646,177.442 68.395,180.269 66.068 C 187.073 60.470,201.397 58.604,211.151 62.045 M300.537 118.929 C 299.842 128.914,293.980 188.230,290.547 220.000 C 289.316 231.393,287.766 248.429,287.103 257.857 C 283.128 314.368,279.551 331.988,270.994 337.206 C 263.838 341.569,136.081 341.519,128.916 337.151 C 122.665 333.340,118.580 326.271,118.591 319.286 C 118.596 316.143,117.329 301.357,115.777 286.429 C 112.237 252.390,107.484 203.866,106.402 190.714 C 105.949 185.214,104.360 169.464,102.871 155.714 C 101.382 141.964,99.891 126.054,99.558 120.357 L 98.953 110.000 200.055 110.000 L 301.158 110.000 300.537 118.929 M166.429 149.594 C 164.857 149.974,162.125 151.619,160.357 153.249 L 157.143 156.212 157.143 224.455 L 157.143 292.698 160.468 296.563 C 165.397 302.294,175.966 302.369,180.837 296.706 L 184.286 292.698 184.286 225.702 C 184.286 177.949,183.810 157.662,182.630 155.072 C 181.234 152.008,173.276 148.022,170.000 148.745 C 169.607 148.832,168.000 149.214,166.429 149.594 M223.199 149.539 C 215.928 151.033,215.714 153.186,215.714 224.862 C 215.714 302.938,215.876 303.672,232.427 300.567 C 243.146 298.556,242.857 300.652,242.857 224.887 L 242.857 157.302 239.643 153.716 C 236.376 150.072,229.326 148.281,223.199 149.539 " stroke="none" fill-rule="evenodd"></path></g></svg>