<svg id="svg" xmlns="http://www.w3.org/2000/svg" xmlns:xlink="http://www.w3.org/1999/xlink" viewBox="0, 0, 400,400" version="1.1"><g id="svgg"><path id="path0" d="M218.852 50.324 C 189.271 54.247,176.533 62.781,126.639 112.099 L 83.607 154.635 83.607 109.404 L 83.607 64.172 79.287 60.775 C 73.441 56.176,66.379 56.423,61.401 61.401 L 57.377 65.425 57.377 129.125 C 57.377 198.256,57.593 199.872,66.867 200.055 C 128.902 201.280,194.563 199.596,197.459 196.706 C 202.382 191.792,201.736 182.472,196.138 177.656 C 191.630 173.779,191.524 173.770,147.859 173.752 L 104.098 173.734 146.721 131.464 C 193.220 85.350,196.616 82.854,220.063 77.556 C 271.930 65.834,323.711 115.749,314.757 168.836 C 310.406 194.629,308.792 196.682,233.486 272.213 C 158.869 347.053,160.084 345.479,169.598 354.993 C 179.280 364.675,177.464 366.090,254.347 288.934 C 323.054 219.982,324.288 218.628,330.900 204.918 C 368.951 126.011,305.742 38.800,218.852 50.324 " stroke="none" fill-rule="evenodd"></path></g></svg>