<svg id="svg" xmlns="http://www.w3.org/2000/svg" xmlns:xlink="http://www.w3.org/1999/xlink" viewBox="0, 0, 400,400" version="1.1"><g id="svgg"><path id="path0" d="M190.364 190.364 L 32.857 347.872 32.857 354.001 C 32.857 362.450,37.536 367.143,45.960 367.143 L 52.051 367.143 103.122 316.144 C 131.211 288.095,154.432 265.434,154.723 265.787 C 155.015 266.140,159.990 278.321,165.778 292.857 C 183.116 336.396,182.712 336.362,221.713 297.539 L 250.017 269.363 294.704 313.967 L 339.391 358.571 345.875 358.571 C 354.546 358.571,358.571 354.483,358.571 345.675 L 358.571 339.391 313.967 294.704 L 269.363 250.017 297.539 221.713 C 336.362 182.712,336.396 183.116,292.857 165.778 C 278.321 159.990,266.140 155.015,265.787 154.723 C 265.434 154.432,288.095 131.211,316.144 103.122 L 367.143 52.051 367.143 45.960 C 367.143 37.536,362.450 32.857,354.001 32.857 L 347.872 32.857 190.364 190.364 M140.638 44.957 C 130.640 49.949,48.541 132.243,44.394 141.429 C 41.073 148.784,40.503 161.579,43.109 170.276 C 46.423 181.337,53.609 187.157,88.781 207.263 L 121.733 226.099 131.609 216.223 L 141.486 206.347 105.991 186.071 C 70.602 165.856,67.143 163.184,67.143 156.059 C 67.143 153.320,150.764 68.975,154.727 67.717 C 161.994 65.411,164.956 69.025,186.028 105.915 L 206.347 141.486 216.223 131.609 L 226.099 121.733 207.263 88.781 C 182.887 46.140,177.805 41.429,156.186 41.429 C 150.026 41.429,145.770 42.394,140.638 44.957 M265.966 183.741 C 277.220 188.156,286.721 192.038,287.079 192.368 C 287.753 192.990,194.146 287.148,192.865 287.136 C 192.468 287.133,188.326 277.454,183.661 265.629 L 175.179 244.129 209.364 209.922 C 228.166 191.108,243.989 175.714,244.526 175.714 C 245.064 175.714,254.712 179.326,265.966 183.741 " stroke="none" fill-rule="evenodd"></path></g></svg>