<svg id="svg" xmlns="http://www.w3.org/2000/svg" xmlns:xlink="http://www.w3.org/1999/xlink" viewBox="0, 0, 400,400" version="1.1"><g id="svgg"><path id="path0" d="M168.571 75.671 C 145.997 80.441,140.956 81.733,135.054 84.263 C 131.358 85.847,127.443 87.143,126.354 87.143 C 125.265 87.143,121.943 88.324,118.973 89.767 C 103.683 97.197,96.020 101.125,92.143 103.522 C 82.949 109.206,76.336 113.558,74.286 115.273 C 42.159 142.147,28.155 158.824,12.737 188.571 C 5.531 202.474,0.013 219.922,0.006 228.825 C -0.010 250.458,20.514 247.898,27.932 225.342 C 58.711 131.749,163.070 79.393,256.362 110.741 C 309.887 128.726,354.299 172.212,370.867 222.857 C 375.652 237.486,379.940 242.857,386.832 242.857 C 426.946 242.857,373.966 145.528,312.792 106.838 C 271.684 80.840,208.616 67.210,168.571 75.671 M184.286 142.141 C 119.336 153.342,95.647 237.502,144.799 282.425 C 196.849 329.995,281.185 293.088,281.389 222.650 C 281.541 170.106,236.873 133.072,184.286 142.141 M221.122 172.674 C 255.697 188.161,265.006 230.223,239.917 257.603 C 211.339 288.791,161.290 278.383,148.584 238.611 C 134.622 194.907,179.562 154.057,221.122 172.674 " stroke="none" fill-rule="evenodd"></path></g></svg>