<svg id="svg" xmlns="http://www.w3.org/2000/svg" xmlns:xlink="http://www.w3.org/1999/xlink" viewBox="0, 0, 400,400" version="1.1"><g id="svgg"><path id="path0" d="M75.714 53.078 C 66.817 57.336,57.593 66.482,53.469 75.138 L 50.000 82.419 50.000 199.995 L 50.000 317.572 53.871 325.217 C 58.530 334.417,65.424 341.348,74.856 346.315 L 81.854 350.000 176.969 350.000 L 272.083 350.000 259.286 337.143 L 246.488 324.286 169.510 324.286 C 81.743 324.286,84.637 324.672,78.572 312.143 C 73.964 302.626,74.119 95.370,78.740 87.149 C 85.537 75.054,78.569 75.714,199.386 75.714 C 320.419 75.714,314.527 75.169,321.166 86.980 C 324.266 92.497,324.286 93.016,324.286 169.510 L 324.286 246.488 337.143 259.286 L 350.000 272.083 350.000 176.969 L 350.000 81.854 346.315 74.856 C 341.348 65.424,334.417 58.530,325.217 53.871 L 317.572 50.000 199.857 50.001 C 82.294 50.002,82.135 50.006,75.714 53.078 M104.827 134.158 C 96.472 139.253,97.040 153.064,105.787 157.498 C 113.578 161.447,286.857 161.326,294.241 157.366 C 303.040 152.648,303.490 139.533,295.033 134.306 C 287.962 129.936,111.975 129.799,104.827 134.158 M105.714 192.502 C 98.283 196.214,97.486 209.059,104.329 214.818 L 108.791 218.571 162.774 218.571 C 212.748 218.571,217.011 218.379,220.164 215.975 C 226.592 211.077,232.527 209.559,241.558 210.502 L 250.142 211.400 249.714 203.200 C 249.003 189.583,251.387 190.004,175.000 190.004 C 116.656 190.004,110.252 190.235,105.714 192.502 M228.050 227.247 C 223.300 230.983,222.995 239.564,227.074 254.673 C 228.608 260.353,231.656 272.071,233.847 280.714 L 237.830 296.429 282.878 341.491 C 325.529 384.156,328.401 386.731,336.867 389.897 C 370.665 402.537,402.537 370.665,389.897 336.867 C 386.731 328.401,384.156 325.529,341.491 282.878 L 296.429 237.830 280.714 233.847 C 272.071 231.656,260.353 228.608,254.673 227.074 C 241.063 223.399,232.873 223.452,228.050 227.247 M102.364 252.612 C 98.316 257.085,99.153 269.127,103.764 272.753 C 107.425 275.633,109.044 275.714,162.959 275.714 L 218.389 275.714 215.623 265.732 C 214.102 260.242,212.857 254.457,212.857 252.875 C 212.857 248.589,106.235 248.335,102.364 252.612 " stroke="none" fill-rule="evenodd"></path></g></svg>